<svg width="40" height="49" viewBox="0 0 40 49" fill="none" xmlns="http://www.w3.org/2000/svg"><path d="M23.0192 9.41264C23.1282 9.40073 23.2378 9.42976 23.3269 9.49416C23.5115 9.64942 23.7115 10.1501 23.7115 11.0894C23.7029 11.8186 23.5472 12.5384 23.2539 13.2049L21.9923 16.3955H28.1462C28.4714 16.4026 28.7822 16.5324 29.0172 16.7595C29.2522 16.9866 29.3943 17.2944 29.4154 17.622C29.4074 17.9831 29.301 18.335 29.1077 18.639L28.5308 19.489L28.7731 20.4827C28.902 21.0429 28.827 21.6312 28.5616 22.1401L28.1769 22.862L28.3192 23.6771C28.4006 24.2181 28.283 24.7704 27.9885 25.2297L27.5039 25.9439L27.6 26.8095C27.6375 27.0273 27.5937 27.2513 27.4769 27.4383C27.2462 27.776 26.8231 27.974 25.3692 27.974H24.0961C23.0406 27.9368 21.9995 27.7149 21.0192 27.318C20.4961 27.1298 19.9633 26.9704 19.4231 26.8406C18.8154 26.7086 18.0962 26.596 17.4539 26.4951C17.1115 26.4408 16.7539 26.3864 16.4885 26.336C15.91 26.2539 15.3265 26.2124 14.7423 26.2118H11.1346V18.4488C12.9462 18.4488 16.1885 17.785 17.7192 16.3101C18.1346 15.9219 18.4423 15.6192 18.7192 15.3591C19.1231 14.9709 19.4885 14.6604 19.9615 14.1636L20.1077 14.0161C20.8231 13.298 21.7115 12.4053 21.9962 11.2059L22.0308 11.07C22.3308 9.78527 22.5846 9.48252 22.7462 9.45147C22.8313 9.43653 22.9175 9.42874 23.0039 9.42818L23.0192 9.41264ZM23.0039 7.09928C22.7941 7.09723 22.5845 7.1115 22.3769 7.14197C20.5231 7.4719 20.0462 9.53298 19.8154 10.5228L19.7846 10.6547C19.6539 11.2059 19.0154 11.8386 18.5115 12.347L18.3654 12.4984C17.9039 12.9642 17.5962 13.2747 17.1846 13.6357C16.9 13.8997 16.5808 14.1985 16.1539 14.61C15.2846 15.4484 12.7577 16.1044 11.1539 16.1044C9.85385 16.1044 8.84616 16.9544 8.84616 18.0451V26.5844C8.84616 27.6712 9.86155 28.5251 11.1539 28.5251H14.7538C15.1989 28.5252 15.6435 28.5551 16.0846 28.6144C16.3769 28.6649 16.7308 28.7231 17.1154 28.7813C17.7192 28.8745 18.4039 28.9832 18.9462 29.0996C19.4018 29.2127 19.8511 29.35 20.2923 29.511C21.5069 29.9878 22.7935 30.2503 24.0961 30.2873H25.3692C26.8462 30.2873 28.4077 30.1476 29.3731 28.7541C29.8117 28.1041 29.9966 27.3133 29.8923 26.5339C30.5278 25.5721 30.778 24.4026 30.5923 23.2618C31.1418 22.2405 31.298 21.0503 31.0308 19.9199C31.4833 19.2289 31.7253 18.4192 31.7269 17.591C31.702 16.6469 31.3146 15.7496 30.6465 15.0884C29.9784 14.4272 29.0819 14.0539 28.1462 14.0471H25.4115C25.8217 13.0996 26.0338 12.0769 26.0346 11.0429C26.0346 9.49027 25.6038 8.35301 24.8039 7.68151C24.3015 7.26924 23.6704 7.0505 23.0231 7.06434L23.0039 7.09928Z" fill="black"/><path d="M25.4769 40.3675C24.7561 40.3672 24.0398 40.2533 23.3538 40.0298L21.2769 39.3506C20.4496 39.079 19.5582 39.079 18.7308 39.3506L16.65 40.0298C15.1064 40.5397 13.433 40.4752 11.9325 39.848C10.432 39.2208 9.20349 38.0723 8.46925 36.6103L7.47308 34.6462C7.07992 33.8619 6.44946 33.2242 5.67309 32.8258L3.72693 31.8244C2.27824 31.0834 1.14018 29.8436 0.518667 28.3293C-0.102846 26.815 -0.166762 25.1262 0.338472 23.5684L1.01155 21.4685C1.2807 20.6336 1.2807 19.734 1.01155 18.899L0.338472 16.7991C-0.166762 15.2414 -0.102846 13.5526 0.518667 12.0383C1.14018 10.524 2.27824 9.28415 3.72693 8.54316L5.67309 7.54175C6.44839 7.14365 7.07861 6.50762 7.47308 5.72519L8.46925 3.75729C9.20409 2.29584 10.4326 1.14782 11.933 0.520683C13.4333 -0.106457 15.1064 -0.171382 16.65 0.337672L18.7308 1.02082C19.5582 1.29244 20.4496 1.29244 21.2769 1.02082L23.3538 0.337672C24.8974 -0.172205 26.5708 -0.107678 28.0713 0.519546C29.5719 1.14677 30.8004 2.29528 31.5346 3.75729L32.5308 5.72519C32.9263 6.50683 33.5563 7.14256 34.3308 7.54175L36.2769 8.54316C37.7297 9.28032 38.8724 10.5187 39.4976 12.0335C40.1228 13.5483 40.1892 15.2391 39.6846 16.7991L39.0115 18.899C38.7424 19.734 38.7424 20.6336 39.0115 21.4685L39.6846 23.5684C40.1907 25.1261 40.1272 26.8152 39.5056 28.3297C38.884 29.8442 37.7454 31.084 36.2962 31.8244L34.35 32.8258C33.5755 33.225 32.9456 33.8607 32.55 34.6423L31.5538 36.6103C30.9856 37.7434 30.1164 38.6949 29.0433 39.3584C27.9702 40.0219 26.7354 40.3713 25.4769 40.3675ZM20.0039 36.4278C20.7171 36.4284 21.4258 36.5424 22.1038 36.7655L24.1846 37.4448C25.1195 37.7539 26.1332 37.7148 27.042 37.3345C27.9508 36.9543 28.6946 36.2581 29.1385 35.3721L30.1346 33.408C30.7852 32.1149 31.8264 31.0641 33.1077 30.4076L35.0539 29.4023C35.9308 28.9544 36.6197 28.2042 36.9958 27.2878C37.3719 26.3714 37.4102 25.3493 37.1038 24.4068L36.4308 22.307C35.9846 20.9273 35.9846 19.4402 36.4308 18.0606L37.1038 15.9646C37.4116 15.0233 37.3757 14.0021 37.0026 13.0852C36.6294 12.1684 35.9437 11.4164 35.0692 10.9652L33.1231 9.95991C31.8418 9.3034 30.8006 8.25262 30.15 6.95953L29.1539 4.99547C28.7099 4.10945 27.9662 3.41326 27.0574 3.03302C26.1486 2.65278 25.1349 2.61366 24.2 2.92276L22.1192 3.60591C20.7529 4.05241 19.2818 4.05241 17.9154 3.60591L15.8385 2.92276C14.9035 2.61448 13.8901 2.654 12.9816 3.03415C12.073 3.41431 11.3291 4.11001 10.8846 4.99547L9.89231 6.95953C9.24068 8.25183 8.19977 9.3023 6.91924 9.95991L4.96923 10.9652C4.09253 11.4145 3.404 12.1654 3.02803 13.0823C2.65207 13.9991 2.61346 15.0215 2.91923 15.9646L3.5923 18.0645C4.03844 19.4428 4.03844 20.9286 3.5923 22.307L2.91923 24.4068C2.61368 25.3494 2.65242 26.3711 3.02841 27.2873C3.4044 28.2036 4.09283 28.9538 4.96923 29.4023L6.91924 30.4076C8.19977 31.0652 9.24068 32.1157 9.89231 33.408L10.8846 35.3721C11.3291 36.2575 12.073 36.9532 12.9816 37.3334C13.8901 37.7135 14.9035 37.7531 15.8385 37.4448L17.9192 36.7655C18.5925 36.5444 19.2958 36.4304 20.0039 36.4278Z" fill="black"/><path d="M32.9269 49C32.763 49.0013 32.6007 48.9674 32.4509 48.9005C32.301 48.8335 32.1669 48.7352 32.0577 48.6119L24.8192 40.3132L26.5538 38.7606L31.7731 44.7459V41.2021C31.7731 40.8932 31.8946 40.5971 32.111 40.3787C32.3274 40.1603 32.6209 40.0376 32.9269 40.0376H36.2808L30.6654 33.6021L32.3961 32.0495L39.7038 40.4219C39.8529 40.59 39.9503 40.7982 39.9843 41.0212C40.0183 41.2442 39.9873 41.4723 39.8953 41.6778C39.8032 41.8834 39.654 42.0576 39.4657 42.1791C39.2774 42.3007 39.0581 42.3644 38.8346 42.3626H34.0808V47.8278C34.0803 48.0639 34.0086 48.2943 33.8754 48.4884C33.7421 48.6825 33.5535 48.8312 33.3346 48.9146C33.2048 48.9673 33.0668 48.9962 32.9269 49Z" fill="black"/><path d="M7.2154 49C6.90938 49 6.61589 48.8773 6.3995 48.6589C6.18312 48.4405 6.06156 48.1444 6.06156 47.8355V42.3704H1.30769C1.0845 42.3714 0.865806 42.3071 0.678092 42.1853C0.490379 42.0634 0.341712 41.8892 0.250118 41.6838C0.158525 41.4784 0.127925 41.2506 0.16204 41.028C0.196154 40.8054 0.293507 40.5975 0.442309 40.4296L7.75 32.0573L9.48462 33.6098L3.86924 40.0454H7.22308C7.5291 40.0454 7.82259 40.1681 8.03898 40.3864C8.25537 40.6048 8.37693 40.901 8.37693 41.2098V44.7536L13.5962 38.7683L15.3269 40.3209L8.08846 48.6196C7.97808 48.742 7.84313 48.8392 7.69258 48.9048C7.54203 48.9704 7.37936 49.0028 7.2154 49Z" fill="black"/></svg>
