<svg width="38" height="40" viewBox="0 0 38 40" fill="none" xmlns="http://www.w3.org/2000/svg"><path d="M18.9172 2.55192C19.3475 2.56613 19.7724 2.65112 20.175 2.80347L33.2592 8.27194C33.8543 8.52145 34.3626 8.94089 34.7205 9.4778C35.0785 10.0147 35.2702 10.6453 35.2716 11.2905C35.2716 26.3726 26.008 34.7794 20.1677 37.2111C19.7683 37.3785 19.3394 37.4641 18.9063 37.4626C18.4756 37.4641 18.049 37.3785 17.6522 37.2111C10.3609 34.1742 2.55559 24.8159 2.55559 11.2905C2.55522 10.6397 2.74844 10.0034 3.11068 9.4626C3.47292 8.92184 3.98781 8.50105 4.58986 8.25372L17.6741 2.78525C18.0778 2.63257 18.504 2.54758 18.9355 2.5337L18.9172 2.55192ZM18.9355 -0.0182495H18.8516C18.141 0.00678626 17.4392 0.147156 16.7736 0.397359L16.6934 0.430157L3.59095 5.89862C2.52651 6.33764 1.6167 7.08334 0.97726 8.04088C0.337817 8.99842 -0.00236079 10.1245 -3.08577e-06 11.2759C-3.08577e-06 11.3124 -3.08577e-06 11.3489 -3.08577e-06 11.3853C-3.08577e-06 18.0423 1.82282 24.3237 5.2242 29.5589C8.22457 34.1779 12.2858 37.7287 16.6642 39.5552C18.0976 40.1483 19.7077 40.1483 21.1411 39.5552C25.1003 37.9037 29.0521 34.5898 31.9869 30.4593C35.8002 25.082 37.8199 18.4506 37.8199 11.2759C37.8219 10.1265 37.4828 9.00231 36.8455 8.04571C36.2082 7.08911 35.3014 6.34314 34.2399 5.90227L21.152 0.433807L21.0718 0.400986C20.4064 0.150156 19.7045 0.00978768 18.9938 -0.0146003L18.9355 -0.0182495Z" fill="black"/><path d="M28.5673 11.4364V12.8946H9.24535V11.4364C9.24631 11.3081 9.2977 11.1853 9.38842 11.0946C9.47915 11.0038 9.60192 10.9524 9.73023 10.9515H28.0788C28.1427 10.951 28.2062 10.9632 28.2654 10.9874C28.3247 11.0115 28.3786 11.0472 28.424 11.0922C28.4694 11.1373 28.5054 11.1909 28.53 11.25C28.5546 11.309 28.5673 11.3724 28.5673 11.4364ZM9.24535 13.8498H28.5673V23.5071C28.5673 23.634 28.5423 23.7596 28.4937 23.8768C28.4452 23.994 28.374 24.1005 28.2843 24.1902C28.1946 24.2799 28.0881 24.3511 27.9709 24.3997C27.8537 24.4482 27.728 24.4732 27.6012 24.4732H10.2187C9.96252 24.4732 9.71679 24.3714 9.53561 24.1902C9.35443 24.009 9.25265 23.7633 9.25265 23.5071L9.24535 13.8498ZM11.1775 18.436C11.1775 18.4998 11.2029 18.561 11.248 18.6061C11.2931 18.6513 11.3543 18.6766 11.4182 18.6766H20.6015C20.6333 18.6771 20.6648 18.6712 20.6942 18.6593C20.7236 18.6474 20.7503 18.6297 20.7728 18.6072C20.7952 18.5848 20.8129 18.5581 20.8248 18.5287C20.8368 18.4992 20.8426 18.4677 20.8421 18.436V17.9548C20.8426 17.9229 20.8368 17.8912 20.8249 17.8616C20.813 17.832 20.7954 17.805 20.773 17.7823C20.7506 17.7596 20.7239 17.7415 20.6945 17.7292C20.665 17.7169 20.6334 17.7105 20.6015 17.7105H11.4255C11.3613 17.7115 11.3001 17.7376 11.2551 17.7833C11.2101 17.829 11.1848 17.8906 11.1848 17.9548L11.1775 18.436ZM11.1775 21.3343C11.1785 21.3978 11.2041 21.4585 11.2491 21.5034C11.294 21.5483 11.3546 21.574 11.4182 21.5749H16.7372C16.8013 21.5749 16.8629 21.5497 16.9086 21.5047C16.9543 21.4596 16.9805 21.3984 16.9814 21.3343V20.8494C16.9805 20.7853 16.9543 20.7241 16.9086 20.6791C16.8629 20.634 16.8013 20.6088 16.7372 20.6088H11.4255C11.3619 20.6098 11.3013 20.6354 11.2564 20.6803C11.2114 20.7253 11.1858 20.7859 11.1848 20.8494L11.1775 21.3343ZM22.767 18.1954C22.767 18.323 22.8177 18.4454 22.908 18.5357C22.9982 18.6259 23.1206 18.6766 23.2483 18.6766H26.1648C26.2928 18.6766 26.4155 18.626 26.5064 18.5359C26.5972 18.4458 26.6487 18.3234 26.6497 18.1954V17.2293C26.6487 17.1013 26.5972 16.9789 26.5064 16.8888C26.4155 16.7986 26.2928 16.7481 26.1648 16.7481H23.2483C23.1206 16.7481 22.9982 16.7988 22.908 16.889C22.8177 16.9793 22.767 17.1017 22.767 17.2293V18.1954ZM22.767 21.3343C22.768 21.3978 22.7936 21.4585 22.8386 21.5034C22.8835 21.5483 22.9441 21.574 23.0077 21.5749H26.3872C26.4513 21.5749 26.5129 21.5497 26.5586 21.5047C26.6043 21.4596 26.6305 21.3984 26.6314 21.3343V20.8494C26.6305 20.7853 26.6043 20.7241 26.5586 20.6791C26.5129 20.634 26.4513 20.6088 26.3872 20.6088H23.0077C22.9441 20.6098 22.8835 20.6354 22.8386 20.6803C22.7936 20.7253 22.768 20.7859 22.767 20.8494V21.3343Z" fill="black"/></svg>
