<svg width="40" height="42" viewBox="0 0 40 42" fill="none" xmlns="http://www.w3.org/2000/svg"><path d="M24.0148 9.20472H6.81739C6.45557 9.20472 6.10857 9.06352 5.85272 8.8122C5.59687 8.56088 5.45313 8.22002 5.45313 7.8646C5.45313 7.50917 5.59687 7.16832 5.85272 6.917C6.10857 6.66567 6.45557 6.52448 6.81739 6.52448H24.0148C24.3766 6.52448 24.7236 6.66567 24.9795 6.917C25.2353 7.16832 25.3791 7.50917 25.3791 7.8646C25.3791 8.22002 25.2353 8.56088 24.9795 8.8122C24.7236 9.06352 24.3766 9.20472 24.0148 9.20472Z" fill="black"/><path d="M24.0148 13.9219H6.81739C6.45557 13.9219 6.10857 13.7807 5.85272 13.5294C5.59687 13.2781 5.45313 12.9372 5.45313 12.5818C5.45313 12.2264 5.59687 11.8855 5.85272 11.6342C6.10857 11.3829 6.45557 11.2417 6.81739 11.2417H24.0148C24.3766 11.2417 24.7236 11.3829 24.9795 11.6342C25.2353 11.8855 25.3791 12.2264 25.3791 12.5818C25.3791 12.9372 25.2353 13.2781 24.9795 13.5294C24.7236 13.7807 24.3766 13.9219 24.0148 13.9219Z" fill="black"/><path d="M15.9033 18.6392H6.81739C6.45557 18.6392 6.10857 18.498 5.85272 18.2466C5.59687 17.9953 5.45313 17.6545 5.45313 17.299C5.45313 16.9436 5.59687 16.6027 5.85272 16.3514C6.10857 16.1001 6.45557 15.9589 6.81739 15.9589H15.9033C16.2651 15.9589 16.6122 16.1001 16.868 16.3514C17.1239 16.6027 17.2676 16.9436 17.2676 17.299C17.2676 17.6545 17.1239 17.9953 16.868 18.2466C16.6122 18.498 16.2651 18.6392 15.9033 18.6392Z" fill="black"/><path d="M24.1356 41.1111C23.1745 41.1101 22.2531 40.7346 21.5735 40.067C20.8939 39.3994 20.5117 38.4943 20.5106 37.5502V29.5439C20.5117 28.5998 20.8939 27.6947 21.5735 27.0271C22.2531 26.3595 23.1745 25.984 24.1356 25.983H24.5917V21.5223C24.5938 20.0468 25.1917 18.6323 26.2542 17.5893C27.3167 16.5463 28.7571 15.9599 30.2592 15.9589C30.4502 15.9589 30.649 15.9589 30.8439 15.9857C33.6893 16.2729 35.9111 18.8306 35.9111 21.8172V25.9754H36.3867C37.3478 25.9764 38.2692 26.3519 38.9488 27.0195C39.6284 27.687 40.0107 28.5922 40.0117 29.5363V37.5502C40.0107 38.4943 39.6284 39.3994 38.9488 40.067C38.2692 40.7346 37.3478 41.1101 36.3867 41.1111H24.1356ZM30.2553 32.0978C29.9637 32.0978 29.6787 32.1828 29.4363 32.342C29.194 32.5012 29.0051 32.7275 28.8937 32.9922C28.7823 33.2569 28.7533 33.548 28.8105 33.8289C28.8677 34.1098 29.0084 34.3677 29.2149 34.5699C29.4213 34.7722 29.6842 34.9097 29.9703 34.9651C30.2563 35.0205 30.5527 34.9913 30.8219 34.8812C31.091 34.7711 31.3209 34.585 31.4823 34.3465C31.6437 34.1079 31.7295 33.8277 31.7287 33.5413C31.7277 33.1581 31.572 32.791 31.2958 32.5204C31.0196 32.2498 30.6454 32.0978 30.2553 32.0978ZM31.7287 25.9715V21.5223C31.7287 21.1385 31.5735 20.7703 31.2972 20.4989C31.0208 20.2275 30.6461 20.075 30.2553 20.075C29.8645 20.075 29.4898 20.2275 29.2135 20.4989C28.9372 20.7703 28.7819 21.1385 28.7819 21.5223V25.9754L31.7287 25.9715Z" fill="black"/><path d="M19.2906 38.0671H5.78834C4.9775 38.0671 4.19982 37.751 3.6261 37.1881C3.05238 36.6253 2.72955 35.8617 2.72852 35.0652V5.68211C2.72955 4.88561 3.05238 4.12208 3.6261 3.55923C4.19982 2.99638 4.9775 2.68024 5.78834 2.68025H25.0478C25.8586 2.68024 26.6363 2.99638 27.21 3.55923C27.7837 4.12208 28.1066 4.88561 28.1076 5.68211V15.063C28.6927 14.8955 29.299 14.8105 29.9084 14.8103C30.1306 14.8103 30.3527 14.8102 30.5749 14.8409L30.8361 14.883V5.6936C30.8361 4.94709 30.6863 4.2079 30.3954 3.51827C30.1045 2.82863 29.678 2.20207 29.1405 1.67438C28.6029 1.1467 27.9648 0.728235 27.2625 0.442907C26.5603 0.157579 25.8077 0.0109729 25.0478 0.0114759H5.78834C5.02839 0.0109729 4.27577 0.157579 3.57352 0.442907C2.87127 0.728235 2.23317 1.1467 1.69562 1.67438C1.15807 2.20207 0.731647 2.82863 0.440707 3.51827C0.149768 4.2079 7.45686e-06 4.94709 7.62939e-06 5.6936V35.0767C7.45686e-06 35.8232 0.149768 36.5624 0.440707 37.2521C0.731647 37.9417 1.15807 38.5683 1.69562 39.096C2.23317 39.6236 2.87127 40.0421 3.57352 40.3274C4.27577 40.6127 5.02839 40.7594 5.78834 40.7589H20.6353C19.8688 40.0521 19.3907 39.0951 19.2906 38.0671Z" fill="black"/></svg>
