<svg width="48" height="28" viewBox="0 0 48 28" fill="none" xmlns="http://www.w3.org/2000/svg"><path d="M24.0019 17.5727C24.0995 17.5718 24.1953 17.5987 24.2782 17.6503C24.361 17.7018 24.4274 17.7758 24.4696 17.8637L25.5162 20.0158L27.8547 20.3604C27.9505 20.3739 28.0405 20.4141 28.1144 20.4764C28.1883 20.5388 28.2431 20.6207 28.2725 20.7127C28.3025 20.8045 28.3065 20.9027 28.2842 20.9967C28.2619 21.0906 28.2141 21.1765 28.146 21.245L26.4477 22.9069L26.8503 25.2888C26.8625 25.3637 26.8583 25.4404 26.8379 25.5136C26.8175 25.5868 26.7814 25.6547 26.7322 25.7126C26.683 25.7705 26.6218 25.817 26.5528 25.8489C26.4839 25.8809 26.4088 25.8975 26.3327 25.8976C26.2486 25.8959 26.166 25.8749 26.0912 25.8364L24.0019 24.722L21.9127 25.8364C21.8367 25.8755 21.7527 25.8965 21.6673 25.8976C21.5583 25.8974 21.4523 25.8625 21.3644 25.7981C21.2851 25.7414 21.2233 25.6636 21.1861 25.5736C21.1488 25.4835 21.1375 25.3849 21.1536 25.2888L21.5369 22.9069L19.8387 21.245C19.7706 21.1765 19.7228 21.0906 19.7005 20.9967C19.6781 20.9027 19.6822 20.8045 19.7122 20.7127C19.7416 20.6207 19.7964 20.5388 19.8703 20.4764C19.9442 20.4141 20.0343 20.3739 20.1301 20.3604L22.4647 20.0158L23.5151 17.8637C23.5573 17.7758 23.6237 17.7018 23.7066 17.6503C23.7894 17.5987 23.8852 17.5718 23.9827 17.5727H24.0019ZM23.9827 15.4666C23.4889 15.4685 23.0054 15.6088 22.5873 15.8715C22.1692 16.1341 21.8332 16.5085 21.6175 16.9523L21.0616 18.1011L19.8233 18.285C19.3421 18.3561 18.89 18.5595 18.5177 18.8723C18.1453 19.1852 17.8673 19.5952 17.7147 20.0567C17.562 20.5181 17.5407 21.0129 17.6531 21.4857C17.7655 21.9586 18.0072 22.391 18.3513 22.7346L19.2637 23.6269L19.0451 24.9288C18.981 25.305 18.9998 25.6907 19.1003 26.059C19.2008 26.4272 19.3805 26.7691 19.6268 27.0607C19.8732 27.3524 20.1804 27.5869 20.5268 27.7478C20.8733 27.9087 21.2507 27.9921 21.6328 27.9923C22.06 27.9904 22.4806 27.8867 22.8595 27.6898L23.9674 27.1L25.0638 27.6821C25.4966 27.9147 25.9861 28.0212 26.4765 27.9897C26.9669 27.9582 27.4386 27.7898 27.838 27.5038C28.2374 27.2178 28.5484 26.8255 28.7357 26.3716C28.9229 25.9178 28.979 25.4206 28.8974 24.9365L28.6789 23.6307L29.5912 22.7385C29.9365 22.3944 30.1792 21.9612 30.2918 21.4872C30.4045 21.0132 30.3828 20.5173 30.2292 20.0549C30.0755 19.5926 29.7961 19.1821 29.422 18.8695C29.048 18.5569 28.5942 18.3545 28.1115 18.285L26.8809 18.105L26.3213 16.9562C26.1047 16.5144 25.7688 16.1419 25.3515 15.8807C24.9343 15.6195 24.4522 15.4801 23.9598 15.4781L23.9827 15.4666Z" fill="black"/><path d="M12.7926 20.2189L14.855 20.5252C14.9417 20.534 15.0239 20.5676 15.0919 20.6219C15.1599 20.6762 15.2108 20.749 15.2384 20.8315C15.2651 20.9127 15.2689 20.9996 15.2493 21.0827C15.2296 21.1658 15.1874 21.2419 15.1272 21.3026L13.6321 22.7654L13.9848 24.8677C13.9978 24.9521 13.9872 25.0385 13.9542 25.1174C13.9211 25.1962 13.8668 25.2643 13.7974 25.3143C13.728 25.3642 13.6461 25.394 13.5607 25.4003C13.4754 25.4066 13.39 25.3893 13.3139 25.3502L11.4738 24.366L9.63373 25.3502C9.55727 25.3897 9.47134 25.4075 9.38543 25.4014C9.29953 25.3953 9.21697 25.3656 9.14686 25.3157C9.07749 25.2657 9.02372 25.197 8.99183 25.1177C8.95994 25.0384 8.95124 24.9517 8.9667 24.8677L9.31936 22.7654L7.82431 21.3026C7.7666 21.2428 7.72632 21.1685 7.70783 21.0875C7.68934 21.0066 7.6933 20.9221 7.71934 20.8433C7.74538 20.7645 7.79248 20.6943 7.85557 20.6402C7.91865 20.5862 7.99532 20.5504 8.07729 20.5367L10.1397 20.2303L11.0636 18.3157C11.1003 18.2382 11.1584 18.1729 11.2311 18.1274C11.3038 18.0819 11.388 18.0582 11.4738 18.0591C11.56 18.0589 11.6444 18.0828 11.7176 18.1281C11.7908 18.1735 11.8498 18.2385 11.8879 18.3157L12.7926 20.2189Z" fill="black"/><path d="M3.59972 20.6707L5.04881 20.8813C5.10818 20.8906 5.16381 20.9162 5.20956 20.9551C5.25531 20.994 5.28937 21.0448 5.30802 21.1019C5.32666 21.159 5.32918 21.2201 5.31522 21.2785C5.30127 21.3369 5.27142 21.3902 5.22898 21.4327L4.17859 22.459L4.42394 23.9371C4.43557 23.9961 4.42979 24.0572 4.40733 24.1129C4.38487 24.1686 4.34667 24.2166 4.2974 24.2511C4.24843 24.2866 4.19045 24.3075 4.13011 24.3116C4.06977 24.3156 4.0095 24.3027 3.95621 24.2741L2.66047 23.5848L1.36856 24.2741C1.31527 24.3027 1.255 24.3156 1.19466 24.3116C1.13432 24.3075 1.07634 24.2866 1.02736 24.2511C0.977759 24.2168 0.939102 24.169 0.91599 24.1133C0.892877 24.0576 0.886299 23.9965 0.897037 23.9371L1.14623 22.459L0.0958361 21.4327C0.0534508 21.3905 0.0235567 21.3374 0.00940321 21.2793C-0.0047503 21.2212 -0.00264044 21.1603 0.0155803 21.1033C0.0338011 21.0463 0.0674207 20.9955 0.112683 20.9563C0.157945 20.9171 0.213109 20.8912 0.272165 20.8813L1.72126 20.6707L2.37295 19.3381C2.39881 19.2836 2.43948 19.2375 2.49031 19.205C2.54115 19.1725 2.60011 19.1549 2.66047 19.1543C2.72137 19.1547 2.78099 19.1721 2.83249 19.2046C2.88399 19.2371 2.92531 19.2833 2.95182 19.3381L3.59972 20.6707Z" fill="black"/><path d="M35.2036 20.2189L33.1411 20.5252C33.0591 20.5389 32.9825 20.5747 32.9194 20.6287C32.8563 20.6828 32.8092 20.753 32.7832 20.8318C32.7571 20.9107 32.7531 20.9951 32.7716 21.076C32.7901 21.157 32.8304 21.2313 32.8881 21.2911L34.3793 22.7539L34.0267 24.8562C34.0136 24.9406 34.0243 25.027 34.0573 25.1059C34.0904 25.1847 34.1447 25.2528 34.2141 25.3028C34.2835 25.3527 34.3654 25.3825 34.4507 25.3888C34.5361 25.3952 34.6215 25.3778 34.6975 25.3387L36.5376 24.3545L38.3778 25.3387C38.4541 25.3787 38.5401 25.3967 38.6261 25.3906C38.7121 25.3845 38.7947 25.3546 38.8646 25.3042C38.934 25.2542 38.9877 25.1855 39.0196 25.1062C39.0515 25.0269 39.0602 24.9402 39.0448 24.8562L38.6921 22.7539L40.1872 21.2911C40.2449 21.2313 40.2852 21.157 40.3037 21.076C40.3222 20.9951 40.3182 20.9107 40.2921 20.8318C40.2661 20.753 40.219 20.6828 40.1559 20.6287C40.0928 20.5747 40.0162 20.5389 39.9342 20.5252L37.8717 20.2189L36.9478 18.3042C36.9112 18.2267 36.8531 18.1614 36.7804 18.1159C36.7077 18.0704 36.6234 18.0467 36.5376 18.0476C36.4515 18.0474 36.367 18.0713 36.2938 18.1167C36.2206 18.162 36.1617 18.227 36.1236 18.3042L35.2036 20.2189Z" fill="black"/><path d="M44.3964 20.6707L42.9474 20.8813C42.888 20.8906 42.8324 20.9162 42.7866 20.9551C42.7409 20.994 42.7068 21.0448 42.6881 21.1019C42.6695 21.159 42.667 21.2201 42.6809 21.2785C42.6949 21.3369 42.7247 21.3902 42.7672 21.4327L43.8176 22.459L43.5723 23.9371C43.5605 23.9965 43.5666 24.058 43.5898 24.1139C43.613 24.1697 43.6523 24.2175 43.7026 24.2511C43.751 24.2862 43.8083 24.307 43.868 24.3111C43.9276 24.3152 43.9872 24.3023 44.0399 24.2741L45.3357 23.5848L46.6276 24.2741C46.6809 24.3027 46.7412 24.3156 46.8015 24.3116C46.8618 24.3075 46.9198 24.2866 46.9688 24.2511C47.0184 24.2168 47.0571 24.169 47.0802 24.1133C47.1033 24.0576 47.1099 23.9965 47.0991 23.9371L46.8499 22.459L47.9042 21.4327C47.9459 21.3893 47.975 21.3354 47.9885 21.2767C48.002 21.2181 47.9994 21.1569 47.9809 21.0996C47.962 21.0433 47.9281 20.9932 47.8829 20.9547C47.8376 20.9162 47.7827 20.8908 47.724 20.8813L46.2749 20.6707L45.6232 19.3381C45.5977 19.2834 45.5571 19.237 45.5062 19.2044C45.4553 19.1719 45.3961 19.1545 45.3357 19.1543C45.2748 19.1547 45.2152 19.1721 45.1637 19.2046C45.1122 19.2371 45.0708 19.2833 45.0443 19.3381L44.3964 20.6707Z" fill="black"/><path d="M0 10.0098V0H6.27554V2.10229H2.44198V3.92122H5.50882V6.01968H2.44198V7.9152H6.46338V10.0175L0 10.0098Z" fill="black"/><path d="M11.1212 10.0098V0H13.5746V7.9152H17.665V10.0175L11.1212 10.0098Z" fill="black"/><path d="M21.9395 10.0098V0H24.3853V10.0098H21.9395Z" fill="black"/><path d="M31.7304 10.0098V2.10229H28.6904V0H37.2239V2.10229H34.1839V10.0098H31.7304Z" fill="black"/><path d="M41.5251 10.0098V0H47.8006V2.10229H43.9671V3.92122H47.0339V6.01968H43.9671V7.9152H47.9847V10.0175L41.5251 10.0098Z" fill="black"/></svg>
