<svg width="55" height="38" viewBox="0 0 55 38" fill="none" xmlns="http://www.w3.org/2000/svg"><path d="M36.4502 18.7006L31.8221 23.3556V36.4292C31.8221 36.8449 31.6574 37.2436 31.3641 37.5375C31.0708 37.8315 30.673 37.9966 30.2582 37.9966H29.4763C29.0612 37.9966 28.663 37.8316 28.3692 37.5377C28.0754 37.2439 27.9099 36.8452 27.909 36.4292V30.9233H27.127V36.4124C27.127 36.8281 26.9622 37.2268 26.669 37.5207C26.3757 37.8146 25.9779 37.9798 25.5631 37.9798H24.7811C24.366 37.9798 23.9679 37.8148 23.6741 37.5209C23.3803 37.2271 23.2147 36.8284 23.2139 36.4124V23.3556L18.5892 18.7174C18.442 18.5724 18.3248 18.3995 18.2446 18.2088C18.1644 18.0181 18.1227 17.8134 18.1218 17.6065C18.1209 17.3995 18.1609 17.1944 18.2395 17.0031C18.3182 16.8117 18.4338 16.6379 18.5798 16.4915C18.7258 16.3452 18.8993 16.2293 19.0903 16.1505C19.2812 16.0717 19.4858 16.0316 19.6923 16.0325C19.8988 16.0333 20.103 16.0752 20.2933 16.1556C20.4836 16.236 20.6561 16.3534 20.8008 16.5009L25.0362 20.7456H29.9998L34.2351 16.5009C34.5284 16.2066 34.9264 16.041 35.3414 16.0407C35.7565 16.0404 36.1547 16.2053 36.4485 16.4993C36.7422 16.7932 36.9074 17.192 36.9077 17.608C36.908 18.024 36.7434 18.4231 36.4502 18.7174V18.7006ZM27.5197 12.8853C28.2168 12.8846 28.8984 13.0912 29.4783 13.4788C30.0583 13.8665 30.5105 14.4178 30.7777 15.063C31.0449 15.7083 31.1152 16.4185 30.9796 17.1038C30.844 17.789 30.5086 18.4186 30.016 18.9129C29.5233 19.4071 28.8954 19.7438 28.2117 19.8803C27.5281 20.0169 26.8194 19.9472 26.1753 19.68C25.5312 19.4128 24.9806 18.9601 24.5933 18.3793C24.2059 17.7984 23.9992 17.1155 23.9992 16.4169C23.9992 15.4808 24.37 14.583 25.0301 13.9208C25.6902 13.2586 26.5857 12.8861 27.5197 12.8853Z" fill="black"/><path d="M14.5351 1.99451C14.7203 1.99523 14.9052 2.00758 15.0888 2.03151C16.1549 2.17343 17.1272 2.71612 17.8089 3.54965C18.4906 4.38317 18.8307 5.4452 18.7603 6.52063C18.6899 7.59605 18.2142 8.60444 17.4297 9.34156C16.6452 10.0787 15.6105 10.4894 14.5351 10.4905C14.3488 10.4897 14.1628 10.4774 13.978 10.4535C12.9117 10.3116 11.9392 9.76862 11.2574 8.93474C10.5757 8.10086 10.2358 7.03844 10.3067 5.96276C10.3775 4.88708 10.8538 3.87861 11.639 3.14176C12.4241 2.40491 13.4594 1.99479 14.5351 1.99451ZM14.5351 2.19094e-06C12.9344 -0.0283928 11.3842 0.561985 10.2063 1.64862C9.02844 2.73526 8.31325 4.23473 8.2092 5.83581C8.10514 7.43689 8.62021 9.01664 9.6475 10.2472C10.6748 11.4778 12.1354 12.2647 13.7263 12.4447C13.9944 12.481 14.2646 12.499 14.5351 12.4985C16.1354 12.5259 17.6849 11.9348 18.862 10.8479C20.0391 9.76097 20.7536 8.26167 20.8572 6.66096C20.9608 5.06025 20.4455 3.48099 19.4184 2.25079C18.3912 1.0206 16.931 0.233865 15.3406 0.053808C15.0734 0.0202543 14.8044 0.00341689 14.5351 0.0033689V2.19094e-06Z" fill="black"/><path d="M20.878 14.7622V15.0245C21.5336 15.6972 22.197 16.3699 22.8682 17.0426V14.7588C22.8661 13.4281 22.3528 12.1493 21.4347 11.188C20.5167 10.2266 19.2645 9.65647 17.9381 9.59595C17.8779 10.3159 17.6174 11.0046 17.1864 11.5837H17.7267C18.5643 11.5891 19.3658 11.9263 19.9563 12.5218C20.5467 13.1173 20.8781 13.9227 20.878 14.7622Z" fill="black"/><path d="M20.878 23.5844V23.7997C20.878 24.2207 20.7111 24.6245 20.4141 24.9222C20.117 25.22 19.7141 25.3872 19.294 25.3872H18.2301V34.418C18.2301 34.8391 18.0632 35.2428 17.7661 35.5406C17.4691 35.8383 17.0662 36.0055 16.6461 36.0055H12.4107C11.9906 36.0055 11.5877 35.8383 11.2906 35.5406C10.9935 35.2428 10.8266 34.8391 10.8266 34.418V25.3738H9.76278C9.55475 25.3738 9.34877 25.3327 9.15658 25.2529C8.96439 25.1731 8.78978 25.0562 8.64268 24.9088C8.49559 24.7614 8.3789 24.5863 8.29929 24.3937C8.21969 24.2011 8.17871 23.9947 8.17871 23.7862V14.7689C8.17862 14.6497 8.18535 14.5307 8.19884 14.4123L2.60766 8.80888C2.41088 8.61167 2.25479 8.37753 2.14829 8.11986C2.04179 7.86218 1.98696 7.58601 1.98696 7.3071C1.98696 7.0282 2.04179 6.75203 2.14829 6.49435C2.25479 6.23668 2.41088 6.00256 2.60766 5.80535C2.80444 5.60813 3.03807 5.45168 3.29518 5.34495C3.55229 5.23822 3.82785 5.18328 4.10615 5.18328C4.38444 5.18328 4.66001 5.23822 4.91712 5.34495C5.17423 5.45168 5.40783 5.60813 5.60462 5.80535L9.86345 10.1105C9.94297 10.004 10.0281 9.90186 10.1185 9.80446C10.0984 9.56946 10.0984 9.33314 10.1185 9.09813C9.95117 8.54512 9.89975 7.96341 9.96749 7.38953L7.0108 4.4028C6.23866 3.63075 5.19212 3.19772 4.1014 3.19898C3.01067 3.20024 1.96512 3.63567 1.19475 4.40952C0.424385 5.18336 -0.00769523 6.23222 -0.00643647 7.32533C-0.0051777 8.41845 0.429324 9.46628 1.20147 10.2383L6.18857 15.2364V23.8165C6.18941 24.6047 6.4492 25.3708 6.92778 25.9963C7.40637 26.6219 8.07714 27.0721 8.8365 27.2774V34.4348C8.83827 35.3843 9.21542 36.2944 9.88533 36.9658C10.5552 37.6371 11.4633 38.0151 12.4107 38.0169H16.6595C17.6069 38.0151 18.5149 37.6371 19.1849 36.9658C19.8548 36.2944 20.2319 35.3843 20.2337 34.4348V27.2606C20.7456 27.121 21.2202 26.8694 21.6235 26.5239C22.0268 26.1785 22.3488 25.7478 22.5661 25.2628L20.878 23.5844Z" fill="black"/><path d="M34.3996 15.2531L35.0138 12.7911C35.0997 12.4467 35.2979 12.1408 35.577 11.9221C35.856 11.7034 36.1999 11.5843 36.5542 11.5836H36.873C36.4394 11.0134 36.1732 10.3331 36.1045 9.61938C35.3891 9.71053 34.7178 10.0162 34.1788 10.4964C33.6398 10.9766 33.2582 11.6088 33.084 12.3101L31.6678 17.9977L34.3996 15.2531Z" fill="black"/><path d="M52.9485 4.39596C52.567 4.01317 52.114 3.70949 51.6153 3.5023C51.1166 3.29511 50.582 3.18848 50.0422 3.18848C49.5023 3.18848 48.9678 3.29511 48.4691 3.5023C47.9704 3.70949 47.5173 4.01317 47.1358 4.39596L44.6389 6.91853C45.0728 7.54508 45.3143 8.28517 45.3336 9.04758L48.5454 5.80523C48.9428 5.40694 49.4818 5.18317 50.0439 5.18317C50.6059 5.18317 51.1449 5.40694 51.5423 5.80523C51.9398 6.20353 52.163 6.74372 52.163 7.30699C52.163 7.87027 51.9398 8.41048 51.5423 8.80877L45.2732 15.0883V16.0973L47.6225 25.5486C47.6812 25.7835 47.6857 26.0287 47.6355 26.2656C47.5853 26.5026 47.4819 26.7249 47.333 26.9156C47.1841 27.1064 46.9937 27.2605 46.7763 27.3663C46.5589 27.4722 46.3203 27.5269 46.0787 27.5263H42.387V34.428C42.387 34.8502 42.2199 35.2552 41.9223 35.5541C41.6247 35.853 41.2209 36.0214 40.7996 36.0223H38.6651C38.2432 36.0223 37.8386 35.8543 37.5403 35.5553C37.242 35.2563 37.0744 34.8508 37.0744 34.428V27.5094H33.3827C33.3005 27.5084 33.2186 27.5006 33.1377 27.4859V29.504C33.2183 29.504 33.2988 29.504 33.3827 29.504H35.101V34.4112C35.1019 35.3598 35.4771 36.2696 36.1449 36.9419C36.8126 37.6143 37.7186 37.9946 38.6651 38H40.7828C41.7332 38 42.6447 37.6221 43.3173 36.9492C43.9899 36.2764 44.3687 35.3636 44.3704 34.4112V29.504H46.0854C46.6308 29.5053 47.1694 29.3817 47.6598 29.1425C48.1503 28.9033 48.5797 28.5549 48.9152 28.1239C49.2507 27.6929 49.4834 27.1907 49.5956 26.6557C49.7077 26.1208 49.6963 25.5672 49.5623 25.0373L47.2801 15.8888L52.9485 10.2382C53.3318 9.8549 53.6359 9.39959 53.8433 8.89834C54.0508 8.39709 54.1576 7.85975 54.1576 7.31709C54.1576 6.77443 54.0508 6.23709 53.8433 5.73585C53.6359 5.2346 53.3318 4.77929 52.9485 4.39596Z" fill="black"/><path d="M39.7324 1.99451C40.5707 1.99451 41.3902 2.24365 42.0873 2.71043C42.7843 3.17721 43.3276 3.84065 43.6484 4.61687C43.9692 5.39309 44.0532 6.24723 43.8896 7.07126C43.7261 7.8953 43.3224 8.65223 42.7296 9.24632C42.1368 9.84042 41.3815 10.245 40.5593 10.4089C39.7371 10.5728 38.8848 10.4887 38.1103 10.1672C37.3358 9.84564 36.6738 9.30116 36.208 8.60258C35.7423 7.904 35.4937 7.0827 35.4937 6.24252C35.4932 5.68454 35.6026 5.13195 35.8154 4.61636C36.0283 4.10076 36.3405 3.63228 36.7342 3.23773C37.1279 2.84318 37.5953 2.5303 38.1098 2.31697C38.6242 2.10365 39.1756 1.99407 39.7324 1.99451ZM39.7324 0C38.5004 0 37.2961 0.366119 36.2718 1.05206C35.2475 1.73799 34.4491 2.71294 33.9777 3.85361C33.5062 4.99428 33.3829 6.24946 33.6232 7.46039C33.8636 8.67132 34.4568 9.78362 35.3279 10.6566C36.199 11.5297 37.3089 12.1242 38.5172 12.3651C39.7255 12.606 40.9779 12.4823 42.116 12.0099C43.2542 11.5374 44.227 10.7373 44.9115 9.71068C45.5959 8.68411 45.9612 7.47717 45.9612 6.24252C45.9586 4.58772 45.3015 3.00147 44.1339 1.83135C42.9663 0.661226 41.3835 0.00266832 39.7324 0Z" fill="black"/></svg>
