<svg width="47" height="40" viewBox="0 0 47 40" fill="none" xmlns="http://www.w3.org/2000/svg"><path d="M17.1009 19.1015C16.8355 19.1018 16.5763 19.022 16.357 18.8727C16.1377 18.7233 15.9685 18.5112 15.8717 18.2642C15.7748 18.0172 15.7548 17.7467 15.8141 17.4881C15.8734 17.2294 16.0094 16.9947 16.2042 16.8146C19.2182 14.0115 21.3657 10.7526 23.242 7.87797C26.1053 3.50385 28.573 -0.27499 32.9246 0.018878C35.2152 0.173347 37.0689 1.14915 38.1087 2.73906C38.6139 3.54826 38.9265 4.46263 39.0225 5.41173C39.1185 6.36082 38.9954 7.3193 38.6625 8.21328C38.3141 9.20222 37.7009 10.0765 36.8898 10.7409C36.0786 11.4053 35.1006 11.8341 34.0624 11.9808C33.7211 12.0142 33.3803 11.9133 33.1122 11.6997C32.8441 11.486 32.6697 11.1763 32.6261 10.8362C32.5825 10.4961 32.673 10.1524 32.8786 9.87798C33.0841 9.60355 33.3884 9.41997 33.727 9.36615C34.2787 9.2784 34.7969 9.04448 35.2275 8.68869C35.6582 8.33289 35.9857 7.86821 36.1759 7.34298C36.3749 6.8329 36.4539 6.28392 36.4069 5.73844C36.3598 5.19296 36.188 4.66559 35.9047 4.19709C35.3094 3.28912 34.2168 2.75411 32.7475 2.65616C30.0763 2.47532 28.3169 4.94683 25.4498 9.32848C23.4869 12.3425 21.264 15.7333 17.9938 18.7473C17.7517 18.9741 17.4326 19.1006 17.1009 19.1015Z" fill="black"/><path d="M29.5602 19.1014C29.2279 19.101 28.9079 18.976 28.6635 18.751C25.397 15.737 23.1704 12.3236 21.2075 9.33217C18.3442 4.95051 16.6073 2.479 13.9098 2.65984C12.4442 2.7578 11.3516 3.2928 10.7526 4.20078C10.4712 4.66933 10.3005 5.19592 10.2535 5.74045C10.2065 6.28497 10.2844 6.83305 10.4813 7.34289C10.6714 7.86861 10.9987 8.33386 11.4294 8.6903C11.86 9.04674 12.3782 9.28137 12.9302 9.36983C13.1059 9.38701 13.2763 9.43927 13.4314 9.52353C13.5865 9.60779 13.7231 9.72234 13.8331 9.86037C13.9431 9.9984 14.0243 10.1571 14.0718 10.3271C14.1193 10.4971 14.1322 10.6749 14.1098 10.8499C14.0873 11.025 14.03 11.1938 13.9411 11.3463C13.8522 11.4988 13.7336 11.6319 13.5923 11.7377C13.4511 11.8435 13.29 11.9198 13.1186 11.9622C12.9473 12.0046 12.7692 12.0122 12.5949 11.9845C11.5571 11.8366 10.5797 11.4073 9.76874 10.7431C8.95776 10.0789 8.34418 9.20524 7.9947 8.21697C7.66126 7.32291 7.53813 6.36409 7.63482 5.41479C7.73152 4.46549 8.04548 3.55118 8.55233 2.74271C9.60348 1.14151 11.4458 0.17703 13.7327 0.0225603C18.0918 -0.275076 20.5557 3.50753 23.4153 7.88165C25.299 10.7563 27.4239 14.0152 30.4568 16.8183C30.6516 16.9984 30.7876 17.2331 30.8469 17.4917C30.9062 17.7503 30.8862 18.0208 30.7893 18.2679C30.6924 18.5149 30.5233 18.727 30.304 18.8763C30.0847 19.0257 29.8255 19.1055 29.5602 19.1052V19.1014Z" fill="black"/><path d="M40.7799 40H5.88112C4.32231 39.9991 2.82756 39.3796 1.72496 38.2778C0.622356 37.1759 0.00198797 35.6815 -7.62939e-06 34.1227V15.285C0.00198797 13.7262 0.622356 12.2318 1.72496 11.1299C2.82756 10.028 4.32231 9.40859 5.88112 9.40759H40.7799C42.338 9.40959 43.8318 10.0295 44.9336 11.1312C46.0354 12.233 46.6552 13.7268 46.6572 15.285V34.1227C46.6562 35.6812 46.0367 37.1755 44.9347 38.2775C43.8327 39.3795 42.3383 39.9991 40.7799 40ZM5.88112 12.0449C5.02145 12.0449 4.19696 12.3861 3.58872 12.9937C2.98049 13.6012 2.63827 14.4253 2.63727 15.285V34.1227C2.63827 34.9824 2.98049 35.8065 3.58872 36.414C4.19696 37.0215 5.02145 37.3628 5.88112 37.3628H40.7799C41.6389 37.3618 42.4625 37.0201 43.0699 36.4127C43.6773 35.8053 44.0189 34.9817 44.0199 34.1227V15.285C44.0189 14.426 43.6773 13.6024 43.0699 12.995C42.4625 12.3876 41.6389 12.0459 40.7799 12.0449H5.88112Z" fill="black"/><path d="M45.3386 30.2157H1.31863C0.968907 30.2157 0.633514 30.0767 0.386221 29.8294C0.138928 29.5821 -7.62939e-06 29.2467 -7.62939e-06 28.897C-7.62939e-06 28.5473 0.138928 28.2119 0.386221 27.9646C0.633514 27.7173 0.968907 27.5784 1.31863 27.5784H45.3386C45.6883 27.5784 46.0238 27.7173 46.271 27.9646C46.5183 28.2119 46.6572 28.5473 46.6572 28.897C46.6572 29.2467 46.5183 29.5821 46.271 29.8294C46.0238 30.0767 45.6883 30.2157 45.3386 30.2157Z" fill="black"/></svg>
