<svg width="49" height="40" viewBox="0 0 49 40" fill="none" xmlns="http://www.w3.org/2000/svg"><path d="M38.8734 2.38234C39.2616 2.38176 39.6432 2.48305 39.9797 2.67603C40.3161 2.86901 40.5956 3.14687 40.7901 3.48164L46.3146 13.0111C46.6072 13.5168 46.6867 14.1174 46.5356 14.6814C46.3844 15.2453 46.015 15.7266 45.5083 16.0197L39.9803 19.2019V17.2415C39.9776 16.2203 39.5687 15.2418 38.8432 14.5203C38.1176 13.7988 37.1346 13.3932 36.1094 13.3923H23.3965V19.4503C23.4095 19.8198 23.3477 20.1881 23.2148 20.5333C23.0818 20.8785 22.8805 21.1935 22.6227 21.4595C22.3649 21.7255 22.056 21.937 21.7143 22.0815C21.3727 22.226 21.0053 22.3004 20.6342 22.3004C20.263 22.3004 19.8957 22.226 19.5541 22.0815C19.2124 21.937 18.9035 21.7255 18.6457 21.4595C18.3879 21.1935 18.1866 20.8785 18.0536 20.5333C17.9207 20.1881 17.8589 19.8198 17.8719 19.4503V10.7581C17.8692 10.386 17.9619 10.0194 18.1413 9.69298C18.3207 9.36659 18.5808 9.09123 18.8969 8.89302L21.2099 7.45339C21.9127 7.01453 22.7242 6.77887 23.5536 6.77271H30.6429L37.7869 2.66142C38.123 2.46999 38.5033 2.36912 38.8905 2.36873L38.8734 2.38234ZM15.658 11.0814V19.4503C15.692 20.7425 16.2312 21.9704 17.1607 22.8724C18.0902 23.7744 19.3366 24.2792 20.6342 24.2792C21.9318 24.2792 23.1782 23.7744 24.1077 22.8724C25.0372 21.9704 25.5764 20.7425 25.6104 19.4503V15.5943H36.1094C36.3273 15.5943 36.543 15.6371 36.7443 15.7203C36.9456 15.8034 37.1284 15.9253 37.2823 16.079C37.4362 16.2326 37.5582 16.415 37.6413 16.6156C37.7243 16.8163 37.7669 17.0313 37.7664 17.2483V20.5632C37.7669 20.7803 37.7243 20.9953 37.6413 21.196C37.5582 21.3966 37.4362 21.579 37.2823 21.7326C37.1284 21.8863 36.9456 22.0081 36.7443 22.0913C36.543 22.1745 36.3273 22.2173 36.1094 22.2173H35.5559V26.6213C35.5564 26.9106 35.4995 27.1971 35.3886 27.4645C35.2776 27.7318 35.1148 27.9747 34.9095 28.1793C34.7041 28.3839 34.4603 28.546 34.1919 28.6565C33.9235 28.767 33.6358 28.8237 33.3454 28.8232H32.2385C32.2331 29.9896 31.7656 31.1067 30.9376 31.9314C30.1097 32.7561 28.9883 33.2219 27.8175 33.2272H18.381L11.237 37.3249C10.9009 37.5163 10.5206 37.6172 10.1335 37.6176C9.74508 37.6189 9.36325 37.5179 9.02666 37.3248C8.69007 37.1318 8.41068 36.8535 8.21679 36.5183L2.69224 26.9888C2.54383 26.7382 2.44691 26.4607 2.40714 26.1724C2.36736 25.8841 2.38551 25.5909 2.46054 25.3097C2.53557 25.0284 2.66597 24.7649 2.84417 24.5343C3.02237 24.3038 3.24481 24.1108 3.49855 23.9666L9.02651 20.7845V17.5308C9.02642 16.7711 9.22364 16.0242 9.599 15.3628C9.97437 14.7015 10.5151 14.1481 11.1687 13.7565L15.6512 11.0746L15.658 11.0814ZM38.8836 -0.00683594C38.0776 -0.00674 37.2858 0.204526 36.5877 0.605769L29.9938 4.39715H23.5639C22.2928 4.39858 21.0472 4.75209 19.9663 5.41816L17.6396 6.8646C16.9134 7.31133 16.3284 7.95305 15.9518 8.71605C15.8544 8.70349 15.7562 8.69781 15.658 8.69903C15.2245 8.69834 14.7991 8.81605 14.4281 9.03937L9.94214 11.7144C8.9352 12.3187 8.10177 13.1714 7.52242 14.1903C6.94306 15.2093 6.63739 16.3598 6.63493 17.5308V19.4095L2.30276 21.9246C1.77878 22.2259 1.31958 22.6272 0.951449 23.1054C0.583313 23.5837 0.313463 24.1296 0.157336 24.7119C0.00120872 25.2942 -0.0381296 25.9014 0.0415722 26.4988C0.121274 27.0963 0.318452 27.6722 0.621822 28.1936L6.14636 37.7231C6.75736 38.7743 7.76163 39.5414 8.93925 39.8566C10.1169 40.1717 11.3719 40.0091 12.4294 39.4044L19.0267 35.596H27.8243C29.2244 35.5927 30.5898 35.1609 31.7355 34.3593C32.8813 33.5576 33.7522 32.4246 34.2303 31.1137C35.2775 30.9088 36.2208 30.3483 36.8994 29.5278C37.5779 28.7072 37.9496 27.6775 37.9509 26.6145V24.1504C38.4563 23.8928 38.902 23.5325 39.2592 23.0929C39.6164 22.6533 39.8772 22.144 40.0248 21.5979C40.4297 21.5914 40.8262 21.4812 41.1761 21.2779L46.7007 18.0924C47.754 17.4819 48.5222 16.4813 48.8377 15.3087C49.1532 14.1362 48.9905 12.887 48.385 11.8335L42.8571 2.30407C42.4523 1.6077 41.8708 1.02955 41.1711 0.62755C40.4713 0.22555 39.6778 0.0138227 38.87 0.0135836L38.8836 -0.00683594Z" fill="black"/></svg>
