<svg width="40" height="38" viewBox="0 0 40 38" fill="none" xmlns="http://www.w3.org/2000/svg"><path d="M9.7992 23.2605C9.74855 23.003 9.72102 22.7415 9.7169 22.4791C9.71357 22.0793 9.79312 21.6831 9.95061 21.3151C10.0883 20.9876 10.2858 20.6883 10.5332 20.4323C10.7717 20.1977 11.0257 19.9792 11.2936 19.7783C11.5668 19.5691 11.8203 19.3925 12.0507 19.2454C12.2632 19.1148 12.4589 18.9588 12.6333 18.7811C12.771 18.653 12.8545 18.4776 12.867 18.2906C12.8731 18.1888 12.8551 18.087 12.8146 17.9933C12.774 17.8997 12.7119 17.8167 12.6333 17.7511C12.4819 17.6336 12.2955 17.5692 12.1033 17.568C11.8761 17.567 11.6557 17.6458 11.4812 17.7904C11.2902 17.9376 11.133 18.1238 11.0204 18.3364L9.70374 17.4569C9.93608 17.0028 10.2817 16.6156 10.7077 16.3321C11.1719 16.0319 11.7176 15.8802 12.2712 15.8972C12.9014 15.8846 13.517 16.0865 14.0158 16.4694C14.2617 16.6635 14.4575 16.9131 14.5869 17.1974C14.7163 17.4817 14.7755 17.7926 14.7597 18.1043C14.7643 18.5063 14.6585 18.9019 14.4536 19.2487C14.2643 19.5769 14.0114 19.8647 13.7097 20.0955C13.4167 20.3146 13.1238 20.514 12.8341 20.6906C12.5687 20.8516 12.3126 21.0273 12.0671 21.217C11.9774 21.2747 11.9005 21.35 11.8411 21.4383C11.7817 21.5266 11.741 21.6259 11.7215 21.7303H14.8716V23.2507L9.7992 23.2605Z" fill="black"/><path d="M15.1876 21.508V20.4323L18.002 16.0182H20.1843V20.0366H21.05V21.508H20.1843V23.2605H18.42V21.508H15.1876ZM17.0046 20.0366H18.42V18.4181L18.4826 17.6072H18.4628C18.3771 17.8715 18.2565 18.1233 18.104 18.356L17.0046 20.017V20.0366Z" fill="black"/><path d="M21.2574 23.6856L23.8644 15.6618H25.3357L22.7255 23.6856H21.2574Z" fill="black"/><path d="M25.8328 23.2605L28.4134 18.186C28.4789 18.053 28.5525 17.9241 28.634 17.8002C28.6787 17.7238 28.7316 17.6525 28.792 17.5876L28.8414 17.5255V17.5059C28.7007 17.5348 28.5568 17.5447 28.4134 17.5353H25.5267V16.0182H30.7604V17.241L27.6992 23.2475L25.8328 23.2605Z" fill="black"/><path d="M35.0461 26.1379H34.0948C33.7893 26.1379 33.4962 26.0173 33.2802 25.8027C33.0641 25.5881 32.9427 25.297 32.9427 24.9935C32.9427 24.69 33.0641 24.3989 33.2802 24.1843C33.4962 23.9696 33.7893 23.8491 34.0948 23.8491H35.0461C35.7652 23.8328 36.4485 23.5338 36.9459 23.0176C37.4433 22.5015 37.7142 21.8104 37.6992 21.096V18.1762C37.7142 17.4618 37.4433 16.7708 36.9459 16.2546C36.4485 15.7385 35.7652 15.4394 35.0461 15.4231H34.0948C33.7893 15.4231 33.4962 15.3025 33.2802 15.0879C33.0641 14.8733 32.9427 14.5822 32.9427 14.2787C32.9427 13.9752 33.0641 13.6841 33.2802 13.4695C33.4962 13.2549 33.7893 13.1343 34.0948 13.1343H35.0461C36.376 13.1516 37.6448 13.6921 38.5741 14.6372C39.5034 15.5824 40.0174 16.8551 40.0033 18.1762V21.096C40.0174 22.4171 39.5034 23.6898 38.5741 24.635C37.6448 25.5802 36.376 26.1206 35.0461 26.1379V26.1379Z" fill="black"/><path d="M5.90846 26.1379H4.95718C3.62726 26.1206 2.35851 25.5802 1.42921 24.635C0.499905 23.6898 -0.0140828 22.4171 -2.41899e-05 21.096V18.1762C-0.0140828 16.8551 0.499905 15.5824 1.42921 14.6372C2.35851 13.6921 3.62726 13.1516 4.95718 13.1343H5.90846C6.21401 13.1343 6.50705 13.2549 6.72311 13.4695C6.93916 13.6841 7.06054 13.9752 7.06054 14.2787C7.06054 14.5822 6.93916 14.8733 6.72311 15.0879C6.50705 15.3025 6.21401 15.4231 5.90846 15.4231H4.95718C4.23806 15.4394 3.55483 15.7385 3.05743 16.2546C2.56003 16.7708 2.28911 17.4618 2.30412 18.1762V21.096C2.28911 21.8104 2.56003 22.5015 3.05743 23.0176C3.55483 23.5338 4.23806 23.8328 4.95718 23.8491H5.90846C6.21401 23.8491 6.50705 23.9696 6.72311 24.1843C6.93916 24.3989 7.06054 24.69 7.06054 24.9935C7.06054 25.297 6.93916 25.5881 6.72311 25.8027C6.50705 26.0173 6.21401 26.1379 5.90846 26.1379V26.1379Z" fill="black"/><path d="M20 37.5C21.2235 37.5 22.2153 36.5148 22.2153 35.2995C22.2153 34.0842 21.2235 33.099 20 33.099C18.7765 33.099 17.7847 34.0842 17.7847 35.2995C17.7847 36.5148 18.7765 37.5 20 37.5Z" fill="black"/><path d="M21.682 36.2052C21.3765 36.2052 21.0834 36.0846 20.8674 35.87C20.6513 35.6554 20.53 35.3643 20.53 35.0608C20.53 34.7573 20.6513 34.4662 20.8674 34.2516C21.0834 34.037 21.3765 33.9164 21.682 33.9164C24.6386 33.9164 27.4744 32.7509 29.5666 30.6757C31.6588 28.6005 32.8363 25.7854 32.8407 22.8485V13.3665C32.8372 10.4313 31.6618 7.61729 29.5724 5.5418C27.483 3.4663 24.6501 2.29877 21.6952 2.2953H18.3213C15.3658 2.29617 12.5314 3.46167 10.44 5.53603C8.34863 7.61039 7.17113 10.4242 7.1659 13.3599V24.8038C7.1659 25.1073 7.04453 25.3984 6.82847 25.613C6.61242 25.8276 6.31938 25.9482 6.01383 25.9482C5.70828 25.9482 5.41524 25.8276 5.19919 25.613C4.98313 25.3984 4.86176 25.1073 4.86176 24.8038V13.3599C4.86611 9.81798 6.28452 6.42235 8.80588 3.91781C11.3272 1.41328 14.7457 0.00432631 18.3114 0H21.682C25.25 0.000863697 28.6719 1.40827 31.1961 3.91318C33.7203 6.41809 35.1405 9.81571 35.1448 13.3599V22.842C35.1413 26.3868 33.7215 29.7852 31.1972 32.2908C28.6729 34.7965 25.2506 36.2043 21.682 36.2052Z" fill="black"/></svg>
