<svg width="40" height="36" viewBox="0 0 40 36" fill="none" xmlns="http://www.w3.org/2000/svg"><path d="M37.816 35.8071H2.184C1.60504 35.8063 1.05003 35.5759 0.640631 35.1665C0.231238 34.7571 0.00085837 34.2021 0 33.6231V31.5267C0.000349248 30.9635 0.218308 30.4221 0.608351 30.0158C0.998394 29.6094 1.53036 29.3694 2.09314 29.346V6.45454C1.53036 6.4311 0.998394 6.19114 0.608351 5.78477C0.218308 5.3784 0.000349248 4.83706 0 4.27379V2.1774C0.00085837 1.59843 0.231238 1.04342 0.640631 0.634025C1.05003 0.224631 1.60504 -0.00573343 2.184 -0.0065918H37.816C38.395 -0.00573343 38.95 0.224631 39.3594 0.634025C39.7688 1.04342 39.9991 1.59843 40 2.1774V4.27379C39.9996 4.8376 39.7812 5.3794 39.3905 5.78586C38.9997 6.19231 38.467 6.43192 37.9036 6.45454V29.3395C38.467 29.3621 38.9997 29.6017 39.3905 30.0082C39.7812 30.4146 39.9996 30.9564 40 31.5203V33.6166C40.0004 33.9039 39.9443 34.1884 39.8347 34.4539C39.7252 34.7194 39.5645 34.9608 39.3617 35.1642C39.1589 35.3676 38.918 35.5291 38.6528 35.6394C38.3876 35.7497 38.1032 35.8067 37.816 35.8071ZM2.27162 33.5355H37.7219V31.6144H36.7483C36.4471 31.6144 36.1582 31.4947 35.9452 31.2817C35.7322 31.0687 35.6125 30.7798 35.6125 30.4786V5.32847C35.6125 5.02724 35.7322 4.73833 35.9452 4.52532C36.1582 4.31231 36.4471 4.19266 36.7483 4.19266H37.7219V2.27151H2.27162V4.18292H3.24517C3.39445 4.18249 3.54234 4.21158 3.68034 4.2685C3.81833 4.32543 3.94372 4.40907 4.04927 4.51462C4.15483 4.62018 4.23847 4.74557 4.2954 4.88357C4.35233 5.02157 4.38141 5.16945 4.38098 5.31873V30.4688C4.38141 30.6181 4.35233 30.766 4.2954 30.904C4.23847 31.042 4.15483 31.1674 4.04927 31.2729C3.94372 31.3785 3.81833 31.4621 3.68034 31.519C3.54234 31.576 3.39445 31.6051 3.24517 31.6046H2.27162V33.5355ZM29.6414 19.0393H27.1264C26.6073 19.0262 26.113 18.8141 25.7458 18.4469C25.3786 18.0797 25.1665 17.5854 25.1533 17.0663V14.5675C25.1657 14.0478 25.3774 13.5527 25.7447 13.1848C26.112 12.8169 26.6067 12.6043 27.1264 12.5912H29.6414C30.1611 12.6043 30.6558 12.8169 31.0231 13.1848C31.3904 13.5527 31.6021 14.0478 31.6145 14.5675V17.0825C31.5972 17.5988 31.3834 18.089 31.0166 18.4527C30.6498 18.8165 30.1578 19.0264 29.6414 19.0393ZM27.425 16.7677H29.3429V14.8466H27.425V16.7677ZM21.2591 19.0393H18.7441C18.225 19.0262 17.7307 18.8141 17.3635 18.4469C16.9963 18.0797 16.7842 17.5854 16.7711 17.0663V14.5675C16.7834 14.0478 16.9951 13.5527 17.3624 13.1848C17.7297 12.8169 18.2244 12.6043 18.7441 12.5912H21.2591C21.7794 12.6035 22.2749 12.8157 22.6429 13.1837C23.0109 13.5517 23.2231 14.0472 23.2354 14.5675V17.0825C23.2181 17.5999 23.0033 18.091 22.6352 18.4549C22.267 18.8189 21.7734 19.028 21.2559 19.0393H21.2591ZM19.0427 16.7677H20.9638V14.8466H19.0427V16.7677ZM12.8768 19.0393H10.3618C9.84238 19.0262 9.34776 18.8142 8.98003 18.4471C8.6123 18.08 8.3995 17.5857 8.38553 17.0663V14.5675C8.39868 14.0475 8.61112 13.5524 8.97894 13.1846C9.34676 12.8168 9.84183 12.6043 10.3618 12.5912H12.8768C13.3965 12.6043 13.8913 12.8169 14.2586 13.1848C14.6258 13.5527 14.8376 14.0478 14.8499 14.5675V17.0825C14.8327 17.5993 14.6183 18.09 14.2508 18.4538C13.8834 18.8177 13.3906 19.0272 12.8736 19.0393H12.8768ZM10.6572 16.7677H12.5783V14.8466H10.6572V16.7677ZM29.6414 11.4521H27.1264C26.6073 11.439 26.113 11.2269 25.7458 10.8596C25.3786 10.4924 25.1665 9.99819 25.1533 9.47904V6.96403C25.1665 6.44489 25.3786 5.95064 25.7458 5.58343C26.113 5.21622 26.6073 5.00411 27.1264 4.99096H29.6414C30.1606 5.00411 30.6548 5.21622 31.022 5.58343C31.3892 5.95064 31.6013 6.44489 31.6145 6.96403V9.47904C31.6013 9.99819 31.3892 10.4924 31.022 10.8596C30.6548 11.2269 30.1606 11.439 29.6414 11.4521ZM27.425 9.18049H29.3429V7.26258H27.425V9.18049ZM21.2591 11.4521H18.7441C18.225 11.439 17.7307 11.2269 17.3635 10.8596C16.9963 10.4924 16.7842 9.99819 16.7711 9.47904V6.96403C16.7842 6.44489 16.9963 5.95064 17.3635 5.58343C17.7307 5.21622 18.225 5.00411 18.7441 4.99096H21.2591C21.7788 5.00329 22.2739 5.21502 22.6418 5.58232C23.0097 5.94961 23.2223 6.44434 23.2354 6.96403V9.47904C23.2222 9.99928 23.0092 10.4945 22.6406 10.8618C22.272 11.2292 21.7762 11.4406 21.2559 11.4521H21.2591ZM19.0427 9.18049H20.9638V7.26258H19.0427V9.18049ZM12.8768 11.4521H10.3618C9.84238 11.439 9.34776 11.227 8.98003 10.8599C8.6123 10.4927 8.3995 9.99848 8.38553 9.47904V6.96403C8.3995 6.44459 8.6123 5.95032 8.98003 5.58319C9.34776 5.21606 9.84238 5.00408 10.3618 4.99096H12.8768C13.396 5.00411 13.8902 5.21622 14.2575 5.58343C14.6247 5.95064 14.8368 6.44489 14.8499 6.96403V9.47904C14.8367 9.99874 14.6242 10.4934 14.2563 10.8607C13.8884 11.228 13.3933 11.4398 12.8736 11.4521H12.8768ZM10.6572 9.18049H12.5783V7.26258H10.6572V9.18049Z" fill="black"/><path d="M22.6221 27.1523H17.3747V34.2982H22.6221V27.1523Z" fill="black"/><path d="M26.2891 27.4184C26.2891 24.3679 23.4723 21.9016 20 21.9016C16.5277 21.9016 13.7076 24.3679 13.7076 27.4184H26.2859H26.2891Z" fill="black"/></svg>
