<svg width="44" height="40" viewBox="0 0 44 40" fill="none" xmlns="http://www.w3.org/2000/svg"><path d="M10.4287 26.6201C11.5662 26.6201 12.4884 25.7119 12.4884 24.5915C12.4884 23.4711 11.5662 22.5629 10.4287 22.5629C9.29111 22.5629 8.36896 23.4711 8.36896 24.5915C8.36896 25.7119 9.29111 26.6201 10.4287 26.6201Z" fill="black"/><path d="M16.816 26.6201C17.9536 26.6201 18.8757 25.7119 18.8757 24.5915C18.8757 23.4711 17.9536 22.5629 16.816 22.5629C15.6785 22.5629 14.7563 23.4711 14.7563 24.5915C14.7563 25.7119 15.6785 26.6201 16.816 26.6201Z" fill="black"/><path d="M23.2005 26.6201C24.338 26.6201 25.2602 25.7119 25.2602 24.5915C25.2602 23.4711 24.338 22.5629 23.2005 22.5629C22.063 22.5629 21.1408 23.4711 21.1408 24.5915C21.1408 25.7119 22.063 26.6201 23.2005 26.6201Z" fill="black"/><path d="M16.249 11.1746C23.7704 11.1746 29.8685 17.1807 29.8685 24.5887C29.8685 31.9966 23.7704 38.0027 16.249 38.0027H2.02496L7.07874 34.4868C4.3508 32.0336 2.62667 28.512 2.62667 24.5858C2.62667 17.1779 8.72476 11.1718 16.2461 11.1718L16.249 11.1746ZM16.2461 9.17731C7.62259 9.18016 0.601684 16.0923 0.601684 24.5915C0.601684 28.0818 1.82535 31.4666 4.01812 34.1791L0.856253 36.3787C0.135938 36.8801 -0.173595 37.7833 0.0954383 38.6125C0.361579 39.4416 1.14264 40.0029 2.02496 40.0029H16.249C24.8754 40.0029 31.8935 33.0907 31.8935 24.5944C31.8935 16.098 24.8754 9.18586 16.249 9.18586L16.2461 9.17731Z" fill="black"/><path d="M43.1437 27.1957L39.9819 24.9961C42.1746 22.2836 43.3983 18.8988 43.3983 15.4085C43.3954 6.91217 36.3774 0 27.751 0C21.9479 0 16.8768 3.12843 14.1778 7.76124C14.8836 7.67576 15.6011 7.62447 16.3301 7.62447C16.44 7.62447 16.547 7.63017 16.657 7.63302C19.1274 4.21967 23.1745 1.99444 27.7539 1.99444C35.2752 1.99444 41.3733 8.00057 41.3733 15.4085C41.3733 19.3347 39.6492 22.8563 36.9212 25.3095L41.975 28.8254H33.013C32.8337 29.5092 32.6109 30.1731 32.3506 30.8199H41.975C42.8573 30.8199 43.6384 30.2586 43.9046 29.4294C44.1707 28.6003 43.864 27.6971 43.1437 27.1957Z" fill="black"/></svg>
