<svg width="29" height="40" viewBox="0 0 29 40" fill="none" xmlns="http://www.w3.org/2000/svg"><path d="M24.1032 40H3.98126C1.78556 40 0 37.8785 0 35.2586V32.2213C0 25.8145 2.917 21.4939 7.42509 21.2216L8.48581 21.158L11.2331 33.0664H16.8726L19.6199 21.158L20.6806 21.2216C25.1923 21.4939 28.1057 25.8181 28.1057 32.2213V35.2586C28.0845 37.875 26.299 40 24.1032 40ZM6.56237 23.8699C3.56759 24.7786 2.47503 28.7952 2.47503 32.2213V35.2586C2.47503 36.4678 3.18218 37.525 3.98126 37.525H24.1032C24.9059 37.525 25.6095 36.4642 25.6095 35.2586V32.2213C25.6095 28.7952 24.5169 24.7786 21.5222 23.8699L18.8314 35.5379H9.25308L6.56237 23.8699Z" fill="black"/><path d="M18.8809 6.10986C18.7556 6.27063 18.5978 6.40315 18.4178 6.49879C18.241 6.58718 18.0642 6.6862 17.8874 6.78167C17.7317 6.99443 17.5262 7.16567 17.2888 7.28035C17.0514 7.39502 16.7895 7.44961 16.5261 7.43931H16.2786C17.2568 7.86029 18.0903 8.55833 18.6765 9.44736C19.2627 10.3364 19.5759 11.3775 19.5775 12.4424V12.5838C19.5756 14.0274 19.0013 15.4113 17.9806 16.432C16.9598 17.4527 15.576 18.027 14.1324 18.0289H13.991C12.5471 18.028 11.1627 17.454 10.1418 16.433C9.12084 15.4121 8.54686 14.0277 8.54592 12.5838V12.4424C8.54966 11.3944 8.85595 10.3698 9.42798 9.49166C10 8.61355 10.8134 7.91929 11.7705 7.49233C10.9707 7.53898 10.17 7.41857 9.41925 7.13876C9.12758 7.01897 8.86123 6.84503 8.63432 6.62609C7.82601 7.36623 7.18065 8.26656 6.73932 9.26975C6.29799 10.2729 6.07035 11.357 6.07089 12.453V12.5944C6.0737 14.6941 6.90904 16.707 8.39374 18.1917C9.87843 19.6764 11.8913 20.5117 13.991 20.5145H14.1324C16.2321 20.5117 18.245 19.6764 19.7297 18.1917C21.2144 16.707 22.0497 14.6941 22.0525 12.5944V12.453C22.054 11.2218 21.7681 10.0073 21.2175 8.90605C20.6669 7.80484 19.8668 6.84737 18.8809 6.10986Z" fill="black"/><path d="M17.4949 7.54531H10.6285C9.99769 7.54438 9.39297 7.29338 8.94692 6.84733C8.50087 6.40128 8.24987 5.79657 8.24893 5.16575V2.37958C8.24987 1.74877 8.50087 1.14405 8.94692 0.698001C9.39297 0.251949 9.99769 0.000935231 10.6285 0H17.4949C18.1254 0.000936831 18.7298 0.252064 19.1753 0.698217C19.6207 1.14437 19.871 1.74909 19.871 2.37958V5.16575C19.871 5.79624 19.6207 6.40094 19.1753 6.84709C18.7298 7.29325 18.1254 7.54437 17.4949 7.54531ZM10.6285 2.27703C10.615 2.27703 10.6017 2.27969 10.5893 2.28484C10.5768 2.28999 10.5655 2.29755 10.556 2.30707C10.5465 2.31659 10.5389 2.3279 10.5338 2.34034C10.5286 2.35278 10.526 2.36611 10.526 2.37958V5.16575C10.526 5.17922 10.5286 5.19255 10.5338 5.20499C10.5389 5.21743 10.5465 5.22872 10.556 5.23824C10.5655 5.24777 10.5768 5.25532 10.5893 5.26047C10.6017 5.26562 10.615 5.26828 10.6285 5.26828H17.4949C17.5082 5.26829 17.5214 5.26562 17.5337 5.26043C17.5459 5.25523 17.557 5.24762 17.5662 5.23805C17.5754 5.22848 17.5827 5.21715 17.5874 5.20473C17.5922 5.19231 17.5944 5.17905 17.5939 5.16575V2.37958C17.5944 2.36628 17.5922 2.35303 17.5874 2.3406C17.5827 2.32818 17.5754 2.31683 17.5662 2.30726C17.557 2.29769 17.5459 2.2901 17.5337 2.2849C17.5214 2.27971 17.5082 2.27702 17.4949 2.27703H10.6285Z" fill="black"/><path d="M17.8096 21.0342L14.044 22.7808L10.2749 21.0342L10.9891 25.1357L14.044 23.389L17.0954 25.1357L17.8096 21.0342Z" fill="black"/></svg>
