<svg width="40" height="40" viewBox="0 0 40 40" fill="none" xmlns="http://www.w3.org/2000/svg"><path d="M25.4731 40.0154C24.7533 40.0139 24.0383 39.8997 23.3538 39.6769L21.2731 39.0039C20.4457 38.7347 19.5543 38.7347 18.7269 39.0039L16.6462 39.6769C15.0988 40.186 13.4201 40.1223 11.9158 39.4976C10.4114 38.8728 9.1815 37.7285 8.45 36.2731L7.4577 34.3269C7.06214 33.5524 6.43221 32.9225 5.65769 32.5269L3.7077 31.5308C2.25845 30.7972 1.1199 29.5687 0.498305 28.068C-0.12329 26.5673 -0.186825 24.8935 0.319226 23.35L0.992303 21.2731C1.26145 20.4457 1.26145 19.5543 0.992303 18.7269L0.319226 16.6462C-0.181714 15.1023 -0.113931 13.4303 0.510325 11.9321C1.13458 10.4338 2.27413 9.20832 3.72307 8.47695L5.67308 7.4808C6.44839 7.08632 7.0786 6.45611 7.47307 5.6808L8.46539 3.73465C9.19963 2.28595 10.4281 1.14789 11.9287 0.526379C13.4292 -0.0951331 15.1026 -0.159061 16.6462 0.346173L18.7269 1.01925C19.5543 1.2884 20.4457 1.2884 21.2731 1.01925L23.3538 0.346173C24.8951 -0.157875 26.5656 -0.0945878 28.0643 0.524619C29.5629 1.14383 30.791 2.2782 31.5269 3.72311L32.5192 5.66926C32.9137 6.44457 33.5439 7.07478 34.3192 7.46926L36.2692 8.46541C37.7174 9.20026 38.8549 10.4288 39.4764 11.9292C40.0978 13.4295 40.1621 15.1026 39.6577 16.6462L38.9808 18.7269C38.7116 19.5543 38.7116 20.4457 38.9808 21.2731L39.6577 23.35C40.1629 24.8936 40.099 26.567 39.4775 28.0675C38.856 29.568 37.7179 30.7966 36.2692 31.5308L34.3192 32.5269C33.5439 32.9214 32.9137 33.5516 32.5192 34.3269L31.5269 36.2731C30.9617 37.3949 30.0969 38.3384 29.0283 38.9989C27.9598 39.6595 26.7293 40.0113 25.4731 40.0154ZM19.9885 36.0923C20.7017 36.0926 21.4105 36.2055 22.0885 36.427L24.1692 37.1C25.1037 37.4066 26.117 37.3684 27.0258 36.9924C27.9345 36.6163 28.6785 35.9273 29.1231 35.05L30.1192 33.1039C30.7698 31.8225 31.811 30.7813 33.0923 30.1308L35.0385 29.1346C35.9164 28.6907 36.6063 27.947 36.9831 27.0382C37.3598 26.1294 37.3986 25.1157 37.0923 24.1808L36.4154 22.1C35.973 20.7337 35.973 19.2625 36.4154 17.8962L37.0923 15.8154C37.3978 14.8805 37.3586 13.8671 36.9819 12.9585C36.6052 12.0499 35.9159 11.3061 35.0385 10.8616L33.0923 9.86925C31.8118 9.21762 30.7709 8.17672 30.1192 6.89618L29.1231 4.94618C28.6779 4.06948 27.9338 3.38093 27.0253 3.00496C26.1168 2.62899 25.1037 2.59041 24.1692 2.89617L22.0885 3.56925C20.7227 4.01539 19.2504 4.01539 17.8846 3.56925L15.8038 2.89617C14.8699 2.58981 13.8572 2.62814 12.9491 3.00422C12.041 3.38029 11.2977 4.06923 10.8538 4.94618L9.85769 6.89618C9.20607 8.17672 8.16515 9.21762 6.88461 9.86925L4.93846 10.8616C4.06106 11.3061 3.37169 12.0499 2.995 12.9585C2.6183 13.8671 2.57914 14.8805 2.88462 15.8154L3.55769 17.8962C4.00383 19.2619 4.00383 20.7343 3.55769 22.1L2.88462 24.1808C2.57833 25.1157 2.61709 26.1294 2.99387 27.0382C3.37065 27.947 4.06051 28.6907 4.93846 29.1346L6.91154 30.1308C8.19286 30.7813 9.23408 31.8225 9.88462 33.1039L10.8808 35.05C11.3253 35.9273 12.0694 36.6163 12.9781 36.9924C13.8868 37.3684 14.9002 37.4066 15.8346 37.1L17.9115 36.427C18.5824 36.2086 19.283 36.0957 19.9885 36.0923Z" fill="black"/><path d="M18.2077 17.8077C17.4893 18.4867 16.5384 18.8649 15.55 18.8649C14.5616 18.8649 13.6107 18.4867 12.8923 17.8077C12.5482 17.4749 12.2747 17.0763 12.0878 16.6356C11.9009 16.1948 11.8047 15.721 11.8047 15.2423C11.8047 14.7637 11.9009 14.2899 12.0878 13.8491C12.2747 13.4084 12.5482 13.0098 12.8923 12.677C13.24 12.3294 13.6542 12.0555 14.1102 11.8718C14.5662 11.6881 15.0546 11.5983 15.5462 11.6077C16.0367 11.6014 16.5236 11.6926 16.9785 11.8762C17.4335 12.0598 17.8474 12.332 18.1962 12.677C18.5466 13.0061 18.8259 13.4035 19.0169 13.8447C19.2078 14.2859 19.3063 14.7616 19.3063 15.2423C19.3063 15.7231 19.2078 16.1988 19.0169 16.64C18.8259 17.0812 18.5466 17.4786 18.1962 17.8077H18.2077ZM12.3769 28.1924L24.8923 11.8885H27.5846L15.0692 28.1924H12.3769ZM14.4654 16.3193C14.6059 16.4624 14.7744 16.5752 14.9603 16.6507C15.1462 16.7261 15.3456 16.7625 15.5462 16.7577C15.7478 16.7618 15.9481 16.725 16.1352 16.6497C16.3222 16.5743 16.4921 16.4619 16.6346 16.3193C16.7772 16.1793 16.8904 16.0123 16.9677 15.828C17.0451 15.6438 17.0849 15.446 17.0849 15.2462C17.0849 15.0464 17.0451 14.8486 16.9677 14.6643C16.8904 14.4801 16.7772 14.3131 16.6346 14.1731C16.4939 14.0273 16.3246 13.912 16.1373 13.8346C15.95 13.7572 15.7488 13.7192 15.5462 13.7231C15.3446 13.7186 15.1443 13.7564 14.9582 13.8339C14.7721 13.9114 14.6042 14.0269 14.4654 14.1731C14.1858 14.4603 14.0294 14.8454 14.0294 15.2462C14.0294 15.647 14.1858 16.032 14.4654 16.3193ZM21.8038 27.4116C21.4539 27.0863 21.1759 26.6914 20.9878 26.2522C20.7997 25.813 20.7056 25.3393 20.7115 24.8616C20.7063 24.3823 20.8007 23.9071 20.9888 23.4661C21.1768 23.0252 21.4543 22.6281 21.8038 22.3C22.5152 21.6165 23.4635 21.2348 24.45 21.2348C25.4365 21.2348 26.3848 21.6165 27.0961 22.3C27.4421 22.6298 27.7175 23.0263 27.9057 23.4656C28.0938 23.905 28.1909 24.3779 28.1909 24.8558C28.1909 25.3337 28.0938 25.8067 27.9057 26.246C27.7175 26.6853 27.4421 27.0818 27.0961 27.4116C26.381 28.0923 25.4316 28.472 24.4442 28.472C23.4569 28.472 22.5074 28.0923 21.7923 27.4116H21.8038ZM22.9385 24.8385C22.9353 25.0384 22.9724 25.2368 23.0475 25.4221C23.1225 25.6073 23.234 25.7756 23.3754 25.917C23.5167 26.0583 23.685 26.1698 23.8703 26.2449C24.0555 26.3199 24.254 26.357 24.4538 26.3539C24.6557 26.3579 24.8563 26.3215 25.0439 26.2468C25.2314 26.1722 25.4022 26.0608 25.5462 25.9193C25.6911 25.7797 25.8056 25.6116 25.8823 25.4256C25.9591 25.2396 25.9966 25.0397 25.9923 24.8385C25.9941 24.6394 25.9554 24.442 25.8788 24.2582C25.8021 24.0744 25.6889 23.9081 25.5462 23.7693C25.4038 23.6247 25.2336 23.5107 25.0458 23.434C24.8581 23.3573 24.6566 23.3196 24.4538 23.3231C24.2532 23.3187 24.0538 23.3561 23.8684 23.4329C23.683 23.5097 23.5156 23.6243 23.3769 23.7693C23.2364 23.9086 23.1251 24.0746 23.0498 24.2576C22.9745 24.4406 22.9366 24.6368 22.9385 24.8347V24.8385Z" fill="black"/></svg>
