<svg width="38" height="40" viewBox="0 0 38 40" fill="none" xmlns="http://www.w3.org/2000/svg"><path d="M28.6292 32.4138V34.2902C28.6292 36.1911 27.0935 37.7315 25.1984 37.7315H12.6097C10.7146 37.7315 9.17893 36.1911 9.17893 34.2902V17.8715C8.9451 17.9415 8.68683 17.98 8.40413 17.98C7.79686 17.98 7.30476 17.8085 6.91736 17.5284V34.2902C6.91736 37.4374 9.4721 40 12.6097 40H25.2019C28.3395 40 30.8942 37.4374 30.8942 34.2902V32.0917C30.2136 32.5118 29.3691 32.6553 28.6326 32.4138H28.6292Z" fill="black"/><path d="M24.6121 28.0693C25.2732 28.0693 25.8092 27.5317 25.8092 26.8685C25.8092 26.2053 25.2732 25.6677 24.6121 25.6677C23.9509 25.6677 23.415 26.2053 23.415 26.8685C23.415 27.5317 23.9509 28.0693 24.6121 28.0693Z" fill="black"/><path d="M28.1021 28.0693C28.7633 28.0693 29.2992 27.5317 29.2992 26.8685C29.2992 26.2053 28.7633 25.6677 28.1021 25.6677C27.441 25.6677 26.905 26.2053 26.905 26.8685C26.905 27.5317 27.441 28.0693 28.1021 28.0693Z" fill="black"/><path d="M31.5922 28.0693C32.2534 28.0693 32.7893 27.5317 32.7893 26.8685C32.7893 26.2053 32.2534 25.6677 31.5922 25.6677C30.9311 25.6677 30.3951 26.2053 30.3951 26.8685C30.3951 27.5317 30.9311 28.0693 31.5922 28.0693Z" fill="black"/><path d="M34.9497 23.8438C35.4767 23.8438 35.906 24.2744 35.906 24.8031V29.4451C35.906 29.9737 35.4767 30.4043 34.9497 30.4043H26.6154L25.2403 32.7148L24.0118 30.4043H21.2546C20.7276 30.4043 20.2983 29.9737 20.2983 29.4451V24.8031C20.2983 24.2744 20.7276 23.8438 21.2546 23.8438H34.9497ZM34.9497 21.7434H21.2546C19.5724 21.7434 18.2043 23.1157 18.2043 24.8031V29.4451C18.2043 31.1325 19.5724 32.5048 21.2546 32.5048H22.7553L23.394 33.7021C23.75 34.3707 24.4376 34.7943 25.1914 34.8118C25.2089 34.8118 25.2263 34.8118 25.2403 34.8118C25.9767 34.8118 26.6608 34.4232 27.0377 33.7896L27.802 32.5013H34.9462C36.6284 32.5013 37.9965 31.129 37.9965 29.4416V24.7996C37.9965 23.1122 36.6284 21.7399 34.9462 21.7399L34.9497 21.7434Z" fill="black"/><path d="M13.388 13.5691C14.0491 13.5691 14.5851 13.0315 14.5851 12.3684C14.5851 11.7052 14.0491 11.1676 13.388 11.1676C12.7268 11.1676 12.1909 11.7052 12.1909 12.3684C12.1909 13.0315 12.7268 13.5691 13.388 13.5691Z" fill="black"/><path d="M9.8979 13.5691C10.559 13.5691 11.095 13.0315 11.095 12.3684C11.095 11.7052 10.559 11.1676 9.8979 11.1676C9.23676 11.1676 8.70081 11.7052 8.70081 12.3684C8.70081 13.0315 9.23676 13.5691 9.8979 13.5691Z" fill="black"/><path d="M6.40779 13.5691C7.06893 13.5691 7.60489 13.0315 7.60489 12.3684C7.60489 11.7052 7.06893 11.1676 6.40779 11.1676C5.74665 11.1676 5.21069 11.7052 5.21069 12.3684C5.21069 13.0315 5.74665 13.5691 6.40779 13.5691Z" fill="black"/><path d="M16.7454 9.34364C17.2724 9.34364 17.7017 9.77423 17.7017 10.3029V14.9449C17.7017 15.4735 17.2724 15.9041 16.7454 15.9041H13.9882L12.7597 18.2146L11.3846 15.9041H3.05033C2.52333 15.9041 2.09405 15.4735 2.09405 14.9449V10.3029C2.09405 9.77423 2.52333 9.34364 3.05033 9.34364H16.7454ZM16.7454 7.24316H3.05033C1.36811 7.24316 0 8.61547 0 10.3029V14.9449C0 16.6323 1.36811 18.0046 3.05033 18.0046H10.1945L10.9589 19.2929C11.3358 19.93 12.0198 20.3151 12.7562 20.3151C12.7737 20.3151 12.7911 20.3151 12.8051 20.3151C13.559 20.2976 14.2465 19.874 14.6025 19.2054L15.2412 18.0081H16.7419C18.4241 18.0081 19.7922 16.6358 19.7922 14.9484V10.3064C19.7922 8.61897 18.4241 7.24666 16.7419 7.24666L16.7454 7.24316Z" fill="black"/><path d="M25.1984 0H12.6097C9.46512 0 6.91736 2.55557 6.91736 5.70978V9.13706C6.98018 9.11255 7.05696 9.08454 7.1128 9.06354C7.221 9.01103 7.3955 8.93401 7.42342 8.92001C8.00626 8.63644 8.61354 8.54192 9.17893 8.63644V5.70978C9.17893 3.80886 10.7146 2.26851 12.6097 2.26851H14.6235C15.0458 2.26851 15.3913 2.61159 15.3913 3.03868V3.43077C15.3913 3.97339 15.8275 4.41099 16.3685 4.41099H21.3698C21.9107 4.41099 22.347 3.97339 22.347 3.43077V3.03868C22.347 2.61509 22.689 2.26851 23.1148 2.26851H25.2019C27.097 2.26851 28.6326 3.80886 28.6326 5.70978V23.1297H28.6396C29.5261 23.0842 30.2939 23.3608 30.8942 23.8439V5.70978C30.8942 2.55557 28.3465 0 25.2019 0H25.1984Z" fill="black"/></svg>
