<svg width="41" height="40" viewBox="0 0 41 40" fill="none" xmlns="http://www.w3.org/2000/svg"><path d="M31.8211 2.49354C31.9846 2.49354 32.1413 2.55846 32.2569 2.67403C32.3725 2.78961 32.4374 2.94636 32.4374 3.1098V26.3069C32.4369 26.3879 32.4526 26.4683 32.4834 26.5433C32.5142 26.6183 32.5595 26.6864 32.6169 26.7437C32.6742 26.801 32.7423 26.8464 32.8173 26.8772C32.8923 26.908 32.9726 26.9236 33.0537 26.9231H37.5207C37.6494 26.9253 37.7742 26.9678 37.8776 27.0446C37.981 27.1214 38.0577 27.2286 38.097 27.3512C38.1363 27.4738 38.1362 27.6057 38.0967 27.7282C38.0572 27.8508 37.9804 27.9579 37.8769 28.0345L20.675 37.3818C20.5718 37.4583 20.4472 37.5006 20.3188 37.5029C20.1904 37.5002 20.066 37.4579 19.9626 37.3818L2.74287 28.0345C2.63939 27.9579 2.56253 27.8508 2.52305 27.7282C2.48358 27.6057 2.48349 27.4738 2.52279 27.3512C2.56209 27.2286 2.63881 27.1214 2.74217 27.0446C2.84553 26.9678 2.97035 26.9253 3.09909 26.9231H7.56254C7.64377 26.9236 7.72428 26.908 7.79946 26.8773C7.87464 26.8465 7.94299 26.8012 8.0006 26.7439C8.0582 26.6866 8.10392 26.6185 8.13511 26.5435C8.16631 26.4685 8.18236 26.3881 8.18236 26.3069V3.1098C8.18189 3.02874 8.1975 2.94839 8.2283 2.87341C8.2591 2.79843 8.30448 2.7303 8.3618 2.67298C8.41912 2.61566 8.48725 2.57029 8.56224 2.53948C8.63722 2.50868 8.71755 2.49307 8.79861 2.49354H31.8069H31.8211ZM31.8069 0H8.81288C7.98839 0.000942805 7.19793 0.328883 6.61494 0.91188C6.03194 1.49488 5.704 2.28532 5.70306 3.1098V24.4296H3.11335C2.46005 24.4289 1.8231 24.6339 1.29289 25.0156C0.762687 25.3972 0.366142 25.9362 0.15955 26.556C-0.0470429 27.1758 -0.0531912 27.8449 0.14196 28.4683C0.337112 29.0918 0.723665 29.638 1.24676 30.0294C1.34397 30.1021 1.44635 30.1675 1.5531 30.2253L18.6517 39.5191C19.1479 39.8309 19.7221 39.9963 20.3081 39.9963C20.8942 39.9963 21.4683 39.8309 21.9645 39.5191L39.0631 30.2253C39.1694 30.1667 39.2717 30.1013 39.3695 30.0294C39.8904 29.6369 40.2748 29.0907 40.4686 28.4679C40.6623 27.8451 40.6556 27.1772 40.4494 26.5584C40.2431 25.9397 39.8478 25.4013 39.3191 25.0193C38.7904 24.6374 38.1551 24.4311 37.5029 24.4296H34.9132V3.1098C34.9122 2.28532 34.5843 1.49488 34.0013 0.91188C33.4183 0.328883 32.6278 0.000942805 31.8034 0H31.8069Z" fill="black"/><path d="M14.6193 16.0976V7.42719C14.6211 7.22842 14.7009 7.03833 14.8415 6.89777C14.982 6.75721 15.1721 6.67743 15.3709 6.67557H22.3991C23.2712 6.67332 24.1393 6.79323 24.9782 7.03179C25.7542 7.24349 26.4806 7.60669 27.1155 8.10045C27.739 8.59326 28.24 9.22356 28.5796 9.9421C28.9615 10.771 29.148 11.6765 29.1246 12.5888C29.1442 13.5046 28.9567 14.4131 28.576 15.2462C28.2344 15.9745 27.7341 16.6172 27.1119 17.1271C26.4814 17.6382 25.7546 18.0174 24.9746 18.242C24.1369 18.4858 23.268 18.6058 22.3956 18.5983H17.266V19.9911H23.3217C23.405 19.9792 23.4898 19.9868 23.5696 20.0134C23.6494 20.04 23.7219 20.0848 23.7813 20.1442C23.8408 20.2037 23.8856 20.2762 23.9121 20.3559C23.9387 20.4357 23.9463 20.5206 23.9344 20.6038V21.8862C23.9463 21.9694 23.9387 22.0543 23.9121 22.134C23.8856 22.2138 23.8408 22.2863 23.7813 22.3458C23.7219 22.4052 23.6494 22.45 23.5696 22.4766C23.4898 22.5032 23.405 22.5108 23.3217 22.4989H17.266V25.427C17.2632 25.6264 17.1828 25.8169 17.0418 25.958C16.9007 26.099 16.7102 26.1794 16.5108 26.1822H15.3673C15.2687 26.1833 15.1709 26.164 15.0802 26.1253C14.9894 26.0867 14.9077 26.0296 14.8401 25.9578C14.7678 25.8898 14.7105 25.8075 14.6719 25.7161C14.6332 25.6247 14.6141 25.5262 14.6157 25.427V22.4989H12.4428C12.3593 22.5114 12.274 22.5042 12.1938 22.4779C12.1135 22.4516 12.0406 22.4069 11.9807 22.3474C11.9208 22.2879 11.8757 22.2151 11.8489 22.1351C11.8221 22.055 11.8145 21.9698 11.8265 21.8862V20.6038C11.8152 20.5204 11.8234 20.4355 11.8505 20.3557C11.8775 20.276 11.9226 20.2036 11.9824 20.1443C12.0421 20.0849 12.1147 20.0402 12.1946 20.0136C12.2745 19.987 12.3594 19.9793 12.4428 19.9911H14.6157V18.5983H12.4428C12.3594 18.61 12.2745 18.6023 12.1946 18.5757C12.1147 18.5492 12.0421 18.5045 11.9824 18.4451C11.9226 18.3857 11.8775 18.3134 11.8505 18.2336C11.8234 18.1539 11.8152 18.069 11.8265 17.9856V16.6996C11.8152 16.6162 11.8234 16.5313 11.8505 16.4515C11.8775 16.3718 11.9226 16.2994 11.9824 16.2401C12.0421 16.1807 12.1147 16.136 12.1946 16.1094C12.2745 16.0829 12.3594 16.0751 12.4428 16.0869L14.6193 16.0976ZM17.2696 16.0976H22.2567C23.5937 16.0976 24.6291 15.8102 25.3629 15.2355C26.0967 14.6608 26.4636 13.7774 26.4636 12.5853C26.4636 11.3955 26.1074 10.5334 25.3629 9.99198C24.6184 9.45052 23.5818 9.18336 22.2567 9.18336H17.2696V16.0976Z" fill="black"/></svg>
