<svg width="38" height="40" viewBox="0 0 38 40" fill="none" xmlns="http://www.w3.org/2000/svg"><path d="M18.6083 2.55195C19.0317 2.56542 19.4499 2.65044 19.8458 2.8035L32.7223 8.27197C33.3071 8.52203 33.8065 8.94172 34.158 9.47858C34.5095 10.0154 34.6975 10.6457 34.6986 11.2905C34.6986 26.3726 25.5846 34.7794 19.8386 37.2111C19.4463 37.3766 19.0258 37.4617 18.6011 37.4617C18.1765 37.4617 17.7559 37.3766 17.3637 37.2111C10.1901 34.1743 2.51083 24.8159 2.51083 11.2905C2.51183 10.6442 2.70061 10.0126 3.05348 9.47494C3.40636 8.93727 3.9076 8.51751 4.49432 8.26832L17.3673 2.8035C17.7633 2.65083 18.1814 2.56583 18.6047 2.55195H18.6083ZM18.6047 0H18.5258C17.8266 0.024388 17.136 0.164778 16.4814 0.415609L16.4024 0.448407L3.52589 5.91687C2.47959 6.35686 1.58549 7.10291 0.957096 8.06031C0.328705 9.01772 -0.00563862 10.1433 -0.00350317 11.2942V11.4036C0.0180175 18.0605 1.78989 24.342 5.13994 29.5771C8.08828 34.1961 12.0875 37.747 16.3953 39.5735C17.8055 40.1665 19.3896 40.1665 20.7998 39.5735C24.6951 37.922 28.5832 34.6081 31.4669 30.4776C35.2223 25.1002 37.2058 18.4688 37.2058 11.2942C37.2083 10.1446 36.8749 9.02023 36.2478 8.06354C35.6207 7.10685 34.7283 6.36099 33.6836 5.92052L20.807 0.452056L20.7317 0.419236C20.0769 0.169032 19.3864 0.028685 18.6872 0.0036492L18.6047 0Z" fill="black"/><path d="M26.492 17.9001C26.7536 17.9001 27.0045 18.0057 27.1894 18.1937C27.3744 18.3817 27.4784 18.6367 27.4784 18.9026C27.4784 19.1685 27.3744 19.4235 27.1894 19.6115C27.0045 19.7996 26.7536 19.9052 26.492 19.9052H25.7244C25.3345 19.9058 24.9534 20.0238 24.6294 20.2444C24.3054 20.465 24.0531 20.7782 23.9041 21.1445C23.7552 21.5109 23.7164 21.9138 23.7927 22.3025C23.869 22.6912 24.0569 23.0482 24.3328 23.3284L24.86 23.8643C25.0243 24.0558 25.1109 24.3036 25.1023 24.5574C25.0938 24.8113 24.9907 25.0524 24.814 25.2321C24.6373 25.4117 24.4 25.5164 24.1502 25.5251C23.9004 25.5338 23.6567 25.4458 23.4683 25.2788L22.9554 24.7393C22.6793 24.46 22.3281 24.27 21.9459 24.1933C21.5638 24.1166 21.1679 24.1566 20.808 24.3083C20.4482 24.4599 20.1406 24.7165 19.9241 25.0456C19.7075 25.3746 19.5916 25.7615 19.591 26.1575V26.9267C19.591 27.1926 19.4871 27.4476 19.3021 27.6356C19.1171 27.8236 18.8663 27.9292 18.6047 27.9292C18.3431 27.9292 18.0922 27.8236 17.9072 27.6356C17.7222 27.4476 17.6183 27.1926 17.6183 26.9267V26.1611C17.6177 25.7652 17.5018 25.3783 17.2852 25.0492C17.0687 24.7201 16.7611 24.4636 16.4013 24.3119C16.0414 24.1603 15.6455 24.1202 15.2634 24.1969C14.8812 24.2737 14.53 24.4636 14.2539 24.7429L13.723 25.2788C13.5325 25.4285 13.2948 25.5022 13.0545 25.4859C12.8143 25.4697 12.5882 25.3648 12.4188 25.1908C12.2494 25.0169 12.1485 24.786 12.1351 24.5417C12.1216 24.2973 12.1965 24.0564 12.3457 23.8643L12.873 23.3284C13.149 23.048 13.337 22.6907 13.4132 22.3016C13.4893 21.9126 13.4503 21.5093 13.3009 21.1429C13.1515 20.7764 12.8986 20.4632 12.574 20.2429C12.2495 20.0226 11.868 19.905 11.4777 19.9052H10.7137C10.4521 19.9052 10.2012 19.7996 10.0163 19.6115C9.83128 19.4235 9.72736 19.1685 9.72736 18.9026C9.72736 18.6367 9.83128 18.3817 10.0163 18.1937C10.2012 18.0057 10.4521 17.9001 10.7137 17.9001H11.4777C11.868 17.9012 12.2498 17.7845 12.5747 17.5646C12.8996 17.3448 13.1529 17.0318 13.3024 16.6653C13.4519 16.2989 13.4909 15.8956 13.4144 15.5065C13.338 15.1175 13.1495 14.7604 12.873 14.4805L12.3457 13.9446C12.1744 13.7542 12.0819 13.5041 12.0874 13.2462C12.0929 12.9883 12.196 12.7425 12.3752 12.5599C12.5544 12.3773 12.796 12.2719 13.0497 12.2657C13.3034 12.2594 13.5497 12.3528 13.7374 12.5264L14.2682 13.0623C14.5434 13.3432 14.8945 13.5346 15.2769 13.6125C15.6593 13.6903 16.0558 13.651 16.4162 13.4995C16.7765 13.3479 17.0845 13.0911 17.3011 12.7614C17.5177 12.4318 17.6331 12.0442 17.6326 11.6478V10.8859C17.6326 10.62 17.7366 10.365 17.9215 10.177C18.1065 9.98894 18.3574 9.8833 18.619 9.8833C18.8806 9.8833 19.1315 9.98894 19.3165 10.177C19.5014 10.365 19.6054 10.62 19.6054 10.8859V11.6442C19.6059 12.0401 19.7218 12.4269 19.9384 12.756C20.155 13.0851 20.4626 13.3417 20.8224 13.4933C21.1822 13.645 21.5781 13.685 21.9603 13.6083C22.3424 13.5316 22.6937 13.3416 22.9698 13.0623L23.5006 12.5264C23.6819 12.3524 23.922 12.2558 24.1713 12.2566C24.3635 12.2571 24.5513 12.3146 24.7117 12.4221C24.8721 12.5296 24.9981 12.6823 25.0743 12.8616C25.1505 13.0409 25.1735 13.2389 25.1406 13.4312C25.1076 13.6236 25.02 13.802 24.8887 13.9446L24.3614 14.4805C24.0849 14.7604 23.8964 15.1175 23.82 15.5065C23.7435 15.8956 23.7825 16.2989 23.932 16.6653C24.0815 17.0318 24.3348 17.3448 24.6597 17.5646C24.9846 17.7845 25.3664 17.9012 25.7567 17.9001H26.492ZM19.1606 17.7761C19.1606 17.4414 19.0629 17.1142 18.8799 16.8359C18.6968 16.5577 18.4367 16.3409 18.1324 16.213C17.8281 16.085 17.4933 16.0518 17.1703 16.1173C16.8474 16.1829 16.5509 16.3443 16.3183 16.5813C16.0856 16.8182 15.9274 17.12 15.8636 17.4483C15.7998 17.7767 15.8333 18.117 15.9598 18.426C16.0863 18.735 16.3002 18.999 16.5743 19.1844C16.8485 19.3698 17.1706 19.4684 17.4999 19.4677C17.7183 19.4677 17.9345 19.4239 18.1363 19.3389C18.338 19.2538 18.5212 19.1291 18.6755 18.972C18.8297 18.8149 18.952 18.6284 19.0352 18.4232C19.1185 18.218 19.1611 17.9981 19.1606 17.7761ZM21.1046 20.5942C21.1046 20.4269 21.0558 20.2634 20.9644 20.1243C20.873 19.9852 20.743 19.8768 20.591 19.8128C20.4389 19.7488 20.2716 19.732 20.1102 19.7647C19.9488 19.7973 19.8005 19.8778 19.6841 19.9961C19.5677 20.1144 19.4885 20.2651 19.4564 20.4292C19.4243 20.5933 19.4407 20.7633 19.5037 20.9179C19.5667 21.0724 19.6734 21.2045 19.8102 21.2975C19.947 21.3904 20.1079 21.44 20.2725 21.44C20.4926 21.439 20.7033 21.3495 20.8586 21.191C21.0139 21.0325 21.1011 20.8179 21.1011 20.5942H21.1046Z" fill="black"/></svg>
